<svg width="24" height="24" viewBox="0 0 24 24" fill="none" xmlns="http://www.w3.org/2000/svg">
<g id="Outline/General/Chart-pie-alt">
<g id="Icon">
<path fill-rule="evenodd" clip-rule="evenodd" d="M11.25 5.78816C7.59833 6.16346 4.75 9.24902 4.75 12.9998C4.75 17.0039 7.99594 20.2498 12 20.2498C15.7508 20.2498 18.8364 17.4015 19.2117 13.7498H12C11.5858 13.7498 11.25 13.4141 11.25 12.9998V5.78816ZM3.25 12.9998C3.25 8.16735 7.16751 4.24984 12 4.24984C12.4142 4.24984 12.75 4.58563 12.75 4.99984V12.2498H20C20.4142 12.2498 20.75 12.5856 20.75 12.9998C20.75 17.8323 16.8325 21.7498 12 21.7498C7.16751 21.7498 3.25 17.8323 3.25 12.9998Z" fill="#E1E1E1"/>
<path fill-rule="evenodd" clip-rule="evenodd" d="M15.5 4.67349V9.49984H20.3264C19.7633 7.11544 17.8844 5.23651 15.5 4.67349ZM14.998 3.06149C18.6183 3.51202 21.4878 6.38151 21.9384 10.0018C22.0066 10.5499 21.5523 10.9998 21 10.9998H14.5C14.2239 10.9998 14 10.776 14 10.4998V3.99984C14 3.44756 14.45 2.99329 14.998 3.06149Z" fill="#E1E1E1"/>
</g>
</g>
</svg>
