<svg width="48" height="39" viewBox="0 0 48 39" fill="none" xmlns="http://www.w3.org/2000/svg">
<path d="M29.9475 38.2273C25.5825 37.5673 21.8325 32.7673 19.6275 29.2498C18.1275 26.8573 17.745 23.9773 18.1575 21.1723L19.9725 8.84979C20.0775 8.11479 20.355 7.40979 20.94 6.95979C22.455 5.78979 26.37 3.84729 34.8225 5.12229C43.275 6.39729 46.4625 9.42729 47.5725 10.9948C48 11.5948 48.06 12.3523 47.955 13.0873L46.14 25.4098C45.7275 28.2073 44.5275 30.8548 42.405 32.6998C39.2775 35.4073 34.305 38.8873 29.9475 38.2273ZM31.23 17.3998C31.2375 17.3623 31.245 17.3173 31.2525 17.2798C31.4925 15.6448 30.3825 14.1298 28.77 13.8823C27.1575 13.6348 25.6575 14.7673 25.4175 16.3948C25.41 16.4323 25.41 16.4773 25.4025 16.5148C25.3575 16.9198 25.7925 17.1448 26.175 17.0173C26.85 16.7923 27.585 16.7248 28.3275 16.8373C29.07 16.9498 29.76 17.2348 30.3375 17.6473C30.6675 17.8798 31.1475 17.7973 31.2225 17.3998H31.23ZM39.675 19.0648C40.005 19.2973 40.485 19.2148 40.56 18.8173C40.5675 18.7798 40.575 18.7348 40.5825 18.6973C40.8225 17.0623 39.7125 15.5473 38.1 15.2998C36.4875 15.0523 34.9875 16.1848 34.7475 17.8123C34.74 17.8498 34.74 17.8948 34.7325 17.9323C34.6875 18.3373 35.1225 18.5623 35.505 18.4348C36.18 18.2098 36.915 18.1423 37.6575 18.2548C38.4 18.3673 39.09 18.6523 39.6675 19.0648H39.675ZM38.8125 25.4548C36.6525 26.4148 34.2075 26.7898 31.695 26.4148C29.1825 26.0398 26.955 24.9523 25.17 23.3923C24.6975 22.9798 23.955 23.2648 24.03 23.8948C24.4725 27.5323 27.255 30.5773 31.005 31.1473C34.755 31.7173 38.295 29.6323 39.765 26.2798C40.02 25.7023 39.39 25.2073 38.82 25.4623L38.8125 25.4548ZM18.0525 33.5173C13.6875 34.1773 8.71498 30.7048 5.59498 27.9898C3.47248 26.1523 2.27248 23.5048 1.85998 20.6998L0.0449831 8.38479C-0.0600169 7.64979 -1.688e-05 6.89229 0.427483 6.29229C1.53748 4.72479 4.72498 1.70229 13.1775 0.419791C21.63 -0.862709 25.545 1.08729 27.06 2.25729C27.1275 2.30979 27.1875 2.36229 27.24 2.41479C23.28 2.77479 20.8575 3.98979 19.47 5.06229C18.195 6.04479 17.745 7.46229 17.595 8.50479L16.1475 18.3523C15.9525 18.3598 15.7575 18.3823 15.555 18.4123C12.915 18.8098 10.92 20.8648 10.44 23.3848C10.32 23.9998 11.0625 24.2998 11.55 23.9098C12.72 22.9798 14.1075 22.3123 15.6525 22.0048C15.4275 24.8848 15.9525 27.9073 17.595 30.5248C18.1125 31.3498 18.72 32.2573 19.41 33.1798C18.9675 33.3373 18.5175 33.4498 18.06 33.5173H18.0525ZM13.0575 11.7748C12.9825 11.3773 12.5025 11.2948 12.1725 11.5273C11.595 11.9398 10.9125 12.2248 10.1625 12.3373C9.41248 12.4498 8.67748 12.3823 8.00998 12.1573C7.62748 12.0298 7.19248 12.2548 7.23748 12.6598C7.24498 12.6973 7.24498 12.7423 7.25248 12.7798C7.49248 14.4148 8.99248 15.5398 10.605 15.2923C12.2175 15.0448 13.3275 13.5298 13.0875 11.8948C13.08 11.8573 13.0725 11.8123 13.065 11.7748H13.0575Z" fill="white" fill-opacity="0.8"/>
</svg>
