<svg width="29" height="26" viewBox="0 0 29 26" fill="none" xmlns="http://www.w3.org/2000/svg">
<path d="M4.61287 25.5C3.44328 25.5 2.44913 25.1354 1.63041 24.4062C0.8117 23.6771 0.402344 22.7917 0.402344 21.75V4.25C0.402344 3.20833 0.8117 2.32292 1.63041 1.59375C2.44913 0.864583 3.44328 0.5 4.61287 0.5H24.262C25.4316 0.5 26.4257 0.864583 27.2444 1.59375C28.0632 2.32292 28.4725 3.20833 28.4725 4.25V21.75C28.4725 22.7917 28.0632 23.6771 27.2444 24.4062C26.4257 25.1354 25.4316 25.5 24.262 25.5H4.61287ZM4.61287 23H24.262C24.6597 23 24.9928 22.88 25.2613 22.64C25.5308 22.4008 25.6655 22.1042 25.6655 21.75V4.25C25.6655 3.89583 25.5308 3.59875 25.2613 3.35875C24.9928 3.11958 24.6597 3 24.262 3H4.61287C4.21521 3 3.88164 3.11958 3.61217 3.35875C3.34363 3.59875 3.20936 3.89583 3.20936 4.25V21.75C3.20936 22.1042 3.34363 22.4008 3.61217 22.64C3.88164 22.88 4.21521 23 4.61287 23ZM6.01638 20.5L11.6304 15.5L14.1567 17.7188L17.2444 14.25L22.8585 20.5H6.01638ZM8.8234 10.5C8.05147 10.5 7.39088 10.255 6.84164 9.765C6.29147 9.27583 6.01638 8.6875 6.01638 8C6.01638 7.3125 6.29147 6.72417 6.84164 6.235C7.39088 5.745 8.05147 5.5 8.8234 5.5C9.59533 5.5 10.2564 5.745 10.8066 6.235C11.3558 6.72417 11.6304 7.3125 11.6304 8C11.6304 8.6875 11.3558 9.27583 10.8066 9.765C10.2564 10.255 9.59533 10.5 8.8234 10.5Z" fill="white"/>
</svg>
