<svg width="40" height="40" viewBox="0 0 40 40" fill="none" xmlns="http://www.w3.org/2000/svg">
<path d="M4.5 32.6001C3.23333 31.1334 2.21667 29.5001 1.45 27.7001C0.683333 25.9001 0.2 24.0001 0 22.0001H4.1C4.3 23.4668 4.66667 24.8581 5.2 26.1741C5.73333 27.4914 6.43333 28.7001 7.3 29.8001L4.5 32.6001ZM0 18.0001C0.266667 16.0001 0.766667 14.1001 1.5 12.3001C2.23333 10.5001 3.23333 8.86676 4.5 7.4001L7.3 10.2001C6.43333 11.3001 5.73333 12.5081 5.2 13.8241C4.66667 15.1414 4.3 16.5334 4.1 18.0001H0ZM17.9 39.9001C15.9 39.7001 14.0087 39.2168 12.226 38.4501C10.442 37.6834 8.8 36.7001 7.3 35.5001L10.1 32.6001C11.2667 33.4668 12.492 34.1834 13.776 34.7501C15.0587 35.3168 16.4333 35.7001 17.9 35.9001V39.9001ZM10.2 7.4001L7.3 4.5001C8.8 3.3001 10.442 2.31676 12.226 1.5501C14.0087 0.783431 15.9333 0.300098 18 0.100098V4.1001C16.5 4.3001 15.1 4.68343 13.8 5.2501C12.5 5.81676 11.3 6.53343 10.2 7.4001ZM15 29.0001V11.0001L29 20.0001L15 29.0001ZM22 39.9001V35.9001C26.0333 35.3334 29.3753 33.5501 32.026 30.5501C34.6753 27.5501 36 24.0334 36 20.0001C36 15.9668 34.6753 12.4501 32.026 9.4501C29.3753 6.4501 26.0333 4.66676 22 4.1001V0.100098C27.1333 0.666764 31.4167 2.83343 34.85 6.6001C38.2833 10.3668 40 14.8334 40 20.0001C40 25.1668 38.2833 29.6334 34.85 33.4001C31.4167 37.1668 27.1333 39.3334 22 39.9001Z" fill="white" fill-opacity="0.8"/>
</svg>
