<svg width="48" height="48" viewBox="0 0 48 48" fill="none" xmlns="http://www.w3.org/2000/svg">
<path d="M18.344 17.3333C19.688 15.7067 21.7227 14.6667 24 14.6667C26.2773 14.6667 28.312 15.7067 29.656 17.3333C30.5409 18.4062 31.1024 19.7085 31.2752 21.0884C31.448 22.4683 31.2248 23.8688 30.6318 25.1267C30.0387 26.3846 29.1002 27.4479 27.9258 28.1926C26.7513 28.9373 25.3893 29.3328 23.9987 29.3328C22.608 29.3328 21.246 28.9373 20.0716 28.1926C18.8971 27.4479 17.9586 26.3846 17.3656 25.1267C16.7725 23.8688 16.5494 22.4683 16.7221 21.0884C16.8949 19.7085 17.4565 18.4062 18.3413 17.3333H18.344ZM34 22C34 20.3147 33.584 18.7253 32.848 17.3333H44C45.0609 17.3333 46.0783 17.7548 46.8284 18.5049C47.5786 19.2551 48 20.2725 48 21.3333V22.6667C48 26.8987 44.784 31.232 39.16 32.7573C38.5821 31.7191 37.7371 30.8543 36.7127 30.2523C35.6883 29.6503 34.5216 29.333 33.3333 29.3333H30.8C31.8108 28.3981 32.6169 27.2637 33.1676 26.0016C33.7184 24.7395 34.0018 23.377 34 22ZM33.3333 32C33.859 31.9986 34.3798 32.1011 34.8657 32.3016C35.3517 32.5021 35.7932 32.7967 36.1649 33.1684C36.5366 33.5401 36.8312 33.9817 37.0317 34.4676C37.2322 34.9535 37.3347 35.4743 37.3333 36V37.3333C37.3333 42.5893 32.3733 48 24 48C15.6267 48 10.6667 42.5893 10.6667 37.3333V36C10.6653 35.4743 10.7678 34.9535 10.9683 34.4676C11.1688 33.9817 11.4634 33.5401 11.8351 33.1684C12.2068 32.7967 12.6483 32.5021 13.1343 32.3016C13.6202 32.1011 14.141 31.9986 14.6667 32H33.3333ZM0 22.6667C0 26.8987 3.216 31.232 8.84 32.7573C9.41795 31.7191 10.2629 30.8543 11.2873 30.2523C12.3117 29.6503 13.4784 29.333 14.6667 29.3333H17.2C16.1892 28.3981 15.3831 27.2637 14.8324 26.0016C14.2816 24.7395 13.9982 23.377 14 22C14 20.3147 14.416 18.7253 15.1547 17.3333H4C2.93913 17.3333 1.92172 17.7548 1.17157 18.5049C0.421427 19.2551 0 20.2725 0 21.3333V22.6667ZM20.6667 7.33333C20.6667 5.38841 19.8941 3.52315 18.5188 2.14788C17.1435 0.772617 15.2783 0 13.3333 0C11.3884 0 9.52315 0.772617 8.14788 2.14788C6.77262 3.52315 6 5.38841 6 7.33333C6 9.27825 6.77262 11.1435 8.14788 12.5188C9.52315 13.8941 11.3884 14.6667 13.3333 14.6667C15.2783 14.6667 17.1435 13.8941 18.5188 12.5188C19.8941 11.1435 20.6667 9.27825 20.6667 7.33333ZM42 7.33333C42 5.38841 41.2274 3.52315 39.8521 2.14788C38.4769 0.772617 36.6116 0 34.6667 0C32.7217 0 30.8565 0.772617 29.4812 2.14788C28.106 3.52315 27.3333 5.38841 27.3333 7.33333C27.3333 9.27825 28.106 11.1435 29.4812 12.5188C30.8565 13.8941 32.7217 14.6667 34.6667 14.6667C36.6116 14.6667 38.4769 13.8941 39.8521 12.5188C41.2274 11.1435 42 9.27825 42 7.33333Z" fill="white" fill-opacity="0.8"/>
</svg>
