<svg width="23" height="26" viewBox="0 0 23 26" fill="none" xmlns="http://www.w3.org/2000/svg">
<path d="M5.82302 20.5H17.0511V18H5.82302V20.5ZM5.82302 15.5H17.0511V13H5.82302V15.5ZM3.016 25.5C2.24407 25.5 1.58349 25.2554 1.03425 24.7663C0.484072 24.2763 0.208984 23.6875 0.208984 23V3C0.208984 2.3125 0.484072 1.72375 1.03425 1.23375C1.58349 0.744583 2.24407 0.5 3.016 0.5H14.2441L22.6651 8V23C22.6651 23.6875 22.3905 24.2763 21.8413 24.7663C21.2911 25.2554 20.63 25.5 19.8581 25.5H3.016ZM12.8406 9.25V3H3.016V23H19.8581V9.25H12.8406Z" fill="white"/>
</svg>
