<svg width="81" height="81" viewBox="0 0 81 81" fill="none" xmlns="http://www.w3.org/2000/svg">
<g id="icon-park-solid:muscle">
<g id="Mask group">
<mask id="mask0_3086_3511" style="mask-type:luminance" maskUnits="userSpaceOnUse" x="4" y="5" width="72" height="71">
<g id="Group">
<g id="Group_2">
<path id="Vector" d="M36.1165 60.5001C38.5332 51.7501 46.9832 45.5001 56.7165 46.5334C65.9832 47.5168 73.3499 55.3334 73.8165 64.6334C73.9332 67.0834 73.5999 69.4334 72.8832 71.6167C72.4499 72.9501 71.1499 73.8334 69.7332 73.8334H20.0965C11.6832 73.8334 5.37321 66.1351 7.02321 57.8851L17.1665 7.16675H37.1665L43.8332 18.8334L29.5499 29.0501L25.4999 23.8334" fill="white"/>
<path id="Vector_2" d="M36.1165 60.5001C38.5332 51.7501 46.9832 45.5001 56.7165 46.5334C65.9832 47.5167 73.3499 55.3334 73.8165 64.6334C73.9332 67.0834 73.5999 69.4334 72.8832 71.6167C72.4499 72.9501 71.1499 73.8334 69.7332 73.8334H20.0965C11.6832 73.8334 5.37321 66.1351 7.02321 57.8851L17.1665 7.16675H37.1665L43.8332 18.8334L29.5499 29.0501L25.4999 23.8334M29.5665 29.0501L37.1665 57.1667" stroke="white" stroke-width="4" stroke-miterlimit="2" stroke-linecap="round" stroke-linejoin="round"/>
</g>
</g>
</mask>
<g mask="url(#mask0_3086_3511)">
<path id="Vector_3" d="M0.5 0.5H80.5V80.5H0.5V0.5Z" fill="white"/>
</g>
</g>
</g>
</svg>
