<svg xmlns="http://www.w3.org/2000/svg" width="24" height="24" viewBox="0 0 24 24" fill="none">
  <path d="M2.85899 2.87797L15.429 1.08197C15.4999 1.07179 15.5722 1.07699 15.641 1.0972C15.7097 1.11741 15.7734 1.15216 15.8275 1.1991C15.8817 1.24605 15.9251 1.30408 15.9548 1.36928C15.9846 1.43447 16 1.5053 16 1.57697V22.424C16 22.4955 15.9846 22.5663 15.9549 22.6314C15.9252 22.6965 15.8819 22.7545 15.8278 22.8014C15.7738 22.8483 15.7103 22.8831 15.6417 22.9034C15.573 22.9237 15.5009 22.929 15.43 22.919L2.85799 21.123C2.61961 21.089 2.40148 20.9702 2.24368 20.7883C2.08588 20.6065 1.999 20.3738 1.99899 20.133V3.86797C1.999 3.62718 2.08588 3.39448 2.24368 3.21261C2.40148 3.03075 2.62061 2.91192 2.85899 2.87797ZM17 2.99997H21C21.2652 2.99997 21.5196 3.10533 21.7071 3.29286C21.8946 3.4804 22 3.73475 22 3.99997V20C22 20.2652 21.8946 20.5195 21.7071 20.7071C21.5196 20.8946 21.2652 21 21 21H17V2.99997ZM10.2 12L13 7.99997H10.6L8.99999 10.286L7.39999 7.99997H4.99999L7.79999 12L4.99999 16H7.39999L8.99999 13.714L10.6 16H13L10.2 12Z" fill="#D0D0D0"/>
</svg>