<svg xmlns="http://www.w3.org/2000/svg" width="25" height="24" viewBox="0 0 25 24" fill="none">
  <g clip-path="url(#clip0_3208_4884)">
    <path d="M4.5 6H20.5V16H4.5M20.5 18C21.0304 18 21.5391 17.7893 21.9142 17.4142C22.2893 17.0391 22.5 16.5304 22.5 16V6C22.5 5.46957 22.2893 4.96086 21.9142 4.58579C21.5391 4.21071 21.0304 4 20.5 4H4.5C3.39 4 2.5 4.89 2.5 6V16C2.5 16.5304 2.71071 17.0391 3.08579 17.4142C3.46086 17.7893 3.96957 18 4.5 18H0.5V20H24.5V18H20.5Z" fill="#EF4444"/>
  </g>
  <defs>
    <clipPath id="clip0_3208_4884">
      <rect width="24" height="24" fill="white" transform="translate(0.5)"/>
    </clipPath>
  </defs>
</svg>