<svg width="44" height="38" viewBox="0 0 44 38" fill="none" xmlns="http://www.w3.org/2000/svg">
<mask id="mask0_764_697" style="mask-type:luminance" maskUnits="userSpaceOnUse" x="0" y="3" width="41" height="34">
<path fill-rule="evenodd" clip-rule="evenodd" d="M0 3.88477H40.4371V36.394H0V3.88477Z" fill="white"/>
</mask>
<g mask="url(#mask0_764_697)">
<path fill-rule="evenodd" clip-rule="evenodd" d="M28.3706 4.90684C26.0226 4.82923 23.6506 4.85394 21.2863 4.87479C18.9221 4.90453 16.559 4.97364 14.2025 5.10956C12.4823 5.20918 10.7686 5.37213 9.0662 5.56905C7.56687 5.74513 6.06986 5.96445 4.62497 6.322C3.90716 6.50309 3.19167 6.71739 2.56344 7.03131C2.24952 7.18615 1.96726 7.37458 1.75489 7.58309L1.6321 7.74488C1.58847 7.80009 1.58847 7.84411 1.55797 7.9028L1.49348 8.1422L1.44174 8.40515C1.312 9.11949 1.24559 9.87823 1.18651 10.6285C1.12782 11.3814 1.08921 12.1386 1.0587 12.8962C0.99924 14.4121 0.97723 15.9315 0.983022 17.4509C0.997309 20.1477 1.11508 22.8606 1.34521 25.5241C1.49155 27.2354 1.69465 28.944 1.95915 30.638C2.22288 32.3307 2.53873 34.015 3.01444 35.6333C3.34187 36.6183 3.06695 36.6082 2.51247 35.8248C1.97035 35.0386 1.31277 33.4181 0.981864 31.4287C0.41503 27.9049 0.16173 24.3676 0.0512981 20.8242C-0.0448475 17.2791 -0.0266996 13.7306 0.287994 10.1551C0.344368 9.61836 0.395337 9.08203 0.485691 8.5318C0.530868 8.25534 0.578361 7.98119 0.666784 7.6773C0.711961 7.53058 0.798454 7.30392 0.906569 7.18422L1.06681 6.97301L1.24597 6.80543C1.73404 6.37606 2.26728 6.13704 2.79627 5.9185C3.32836 5.71385 3.86546 5.55052 4.40565 5.41113C6.56642 4.86591 8.75962 4.59833 10.9335 4.39059C15.7157 3.96508 20.5068 3.88863 25.2885 3.88477C26.762 3.88708 28.2382 3.91025 29.7151 3.9867C31.192 4.06818 32.6713 4.18594 34.1436 4.47708C34.7004 4.59176 35.2572 4.73347 35.8047 4.95318C36.0769 5.06824 36.3503 5.19374 36.6063 5.38294C36.8608 5.57755 37.0994 5.80691 37.2535 6.05287C37.6017 6.53784 37.8547 7.06182 38.0651 7.59351C38.2848 8.12328 38.4478 8.66656 38.6065 9.20946C39.1972 11.3907 39.503 13.6098 39.7448 15.8138C40.1089 19.243 40.312 22.6154 40.3973 26.0199C40.4135 26.7693 40.4363 27.503 40.4371 28.2594C40.4348 31.0627 40.3209 31.9546 40.0401 32.5458C39.9753 32.6802 39.9089 32.8582 39.8459 32.935C39.6281 33.1937 39.5185 32.0523 39.4922 30.0128C39.4498 26.9871 39.3644 23.88 39.1756 20.7407C38.9795 17.6062 38.7134 14.4195 38.101 11.3266C37.8655 10.1848 37.5898 9.04419 37.1693 8.00126C36.9646 7.47922 36.7179 6.97841 36.4152 6.57568C36.3453 6.461 36.2603 6.39614 36.1854 6.31273C36.1488 6.28261 36.1132 6.25095 36.0785 6.21813L35.9437 6.12585C35.7487 6.00537 35.5163 5.89649 35.2653 5.80459C34.2448 5.44317 33.069 5.27482 31.9102 5.14933C30.7438 5.02847 29.561 4.96631 28.3756 4.93156L28.3706 4.90684Z" fill="#231F20"/>
</g>
<path fill-rule="evenodd" clip-rule="evenodd" d="M27.8061 24.9145C27.4745 24.7782 27.1362 24.6481 26.8038 24.5848C26.5775 24.5346 26.6188 24.5396 26.5601 24.5261C26.5099 24.5126 26.4949 24.5682 26.481 24.606C26.4756 24.6311 26.4759 24.6149 26.4694 24.6879C26.4628 24.7485 26.4605 24.8133 26.4586 24.8786L26.4489 25.2767C26.4223 26.2351 26.4756 27.2313 26.5628 28.2147C26.6041 28.6518 26.6763 29.0878 26.759 29.5144L26.9354 30.333C26.9868 30.6064 27.02 30.8833 27.0482 31.157C27.0644 31.3258 26.9177 31.3543 26.7207 31.2528C26.5269 31.1508 26.2744 30.9176 26.1694 30.5998C25.8836 29.4585 25.7133 28.3082 25.6747 27.1286C25.6643 26.4219 25.5566 25.6999 25.5786 24.9516C25.5848 24.8469 25.5875 24.745 25.5998 24.6365C25.6064 24.5909 25.6075 24.518 25.6249 24.4349C25.6411 24.3573 25.6508 24.277 25.6716 24.2025C25.7153 24.0538 25.7686 23.9114 25.8682 23.8071C25.9608 23.6874 26.1072 23.6445 26.2609 23.6619L26.7092 23.6642C26.8389 23.6758 26.9231 23.7071 27.032 23.7276C27.2416 23.7666 27.4339 23.8395 27.6312 23.9013C28.1046 24.0758 28.5618 24.272 28.9962 24.4998C29.6599 24.8369 30.2831 25.2365 30.9079 25.608C31.3937 25.8964 31.896 26.1405 32.386 26.3961C32.4937 26.4517 32.6042 26.4965 32.7096 26.5563C32.9061 26.661 33.0208 26.7494 33.0764 26.8536C33.1343 26.9506 33.1428 27.0548 33.1227 27.1942C33.1135 27.2579 33.1115 27.3243 33.0961 27.383C33.0501 27.5772 32.7887 27.6444 32.442 27.5398C31.4744 27.1483 30.6299 26.5579 29.7588 26.0184C29.1159 25.6176 28.4691 25.2219 27.7988 24.9357L27.8061 24.9145Z" fill="#231F20"/>
<path fill-rule="evenodd" clip-rule="evenodd" d="M31.3744 29.5204C31.8359 29.9737 32.3108 30.4177 32.8023 30.8436C32.9811 31 33.1796 31.1301 33.3595 31.2846C33.9939 31.8302 34.6457 32.3572 35.3203 32.8507C35.6191 33.0693 35.9388 33.2596 36.2593 33.4303C36.6713 33.6361 37.0988 33.8573 37.4637 34.0041C37.5621 34.0442 37.5837 34.2079 37.4254 34.3612C37.2629 34.5176 36.9316 34.6084 36.6404 34.5219C36.1192 34.3744 35.6713 34.1319 35.2392 33.8709C34.8056 33.6121 34.4017 33.3129 34.0267 32.9754C33.5757 32.5766 33.0495 32.2468 32.5749 31.863C32.0536 31.4417 31.549 31.0004 31.054 30.5486C30.7485 30.2718 30.452 29.9841 30.1547 29.6988C29.7052 29.264 29.277 28.8045 28.8434 28.3554C28.5082 28.004 28.1456 27.6851 27.8228 27.297C27.7499 27.2144 27.6761 27.1299 27.6124 27.0337C27.5495 26.9488 27.5101 26.8661 27.4908 26.7889C27.4703 26.7132 27.4533 26.6534 27.4634 26.5931C27.4973 26.4626 27.5537 26.3796 27.636 26.3035C27.6742 26.2692 27.7074 26.2309 27.7437 26.2078C27.8055 26.1684 27.8792 26.1777 27.9757 26.2082C28.0684 26.2414 28.2051 26.2784 28.2901 26.3727C28.8133 26.9152 29.3867 27.538 29.9964 28.1481C30.447 28.6033 30.9103 29.0605 31.3899 29.5014L31.3744 29.5204Z" fill="#231F20"/>
<path fill-rule="evenodd" clip-rule="evenodd" d="M22.0157 25.2475C22.1134 25.2405 22.1365 25.3961 22.0531 25.5718C22.0273 25.629 21.8975 25.7618 21.8674 25.7734C21.8091 25.7962 21.7531 25.8182 21.7126 25.834C21.6875 25.8386 21.3218 25.7695 21.1724 25.7688C21.0395 25.7618 20.9129 25.7309 20.7905 25.6931C20.5376 25.6213 20.2874 25.5363 20.0306 25.468C19.9738 25.4517 19.9209 25.4239 19.87 25.3892C19.6962 25.266 19.4997 25.2096 19.2981 25.1791C19.2649 25.1733 19.2325 25.1602 19.1923 25.1873C19.1255 25.2282 18.5961 25.1166 18.534 25.0818C18.3764 24.9872 18.2162 24.9046 18.054 24.8197C18.0305 24.8069 18.0034 24.8158 17.9864 24.7718C17.9467 24.6691 17.8914 24.6791 17.8393 24.6637C17.7667 24.6328 17.6957 24.622 17.6246 24.564C17.5895 24.5378 17.5544 24.4806 17.5173 24.4386C17.4837 24.3999 17.5018 24.2961 17.5146 24.2822C17.5505 24.2474 17.5219 24.1922 17.5184 24.1466C17.5173 24.1312 17.5161 24.1107 17.5181 24.0976C17.5196 24.091 17.6405 23.9906 17.7779 23.9177C17.9119 23.8474 18.0555 23.7976 18.0826 23.7991C18.0891 23.7987 18.2718 23.7949 18.4656 23.791C18.6556 23.7929 18.8521 23.8142 18.8931 23.8115C18.9355 23.8107 18.9714 23.8431 19.0089 23.8659C19.0278 23.8725 19.5862 23.9277 19.607 23.9377C19.7147 23.9794 19.8356 23.9756 19.9217 24.0895C19.9387 24.1119 19.9622 24.1142 19.9846 24.1192C20.1765 24.1621 20.3542 24.2524 20.5329 24.3362C20.6245 24.3772 20.7225 24.4007 20.8171 24.4351C20.8337 24.4413 20.8469 24.4594 20.8619 24.471C20.8808 24.4853 20.8982 24.5038 20.9202 24.5108C21.1477 24.5826 21.345 24.7301 21.579 24.8023C21.6326 24.8189 21.833 25.0301 21.8967 25.0544C21.9326 25.0641 21.9771 25.249 22.0157 25.2475Z" fill="#231F20"/>
<path fill-rule="evenodd" clip-rule="evenodd" d="M24.5771 21.9203C24.6651 21.9265 24.6003 22.001 24.5636 22.2153C24.5504 22.2814 24.4771 22.4586 24.4392 22.469C24.369 22.4906 24.284 22.5026 24.2095 22.4972C24.1651 22.4984 23.7446 22.2729 23.6233 22.2022C23.4909 22.1335 23.3878 22.0408 23.2905 21.9435C23.0924 21.7458 22.8955 21.552 22.7063 21.35C22.6646 21.3052 22.6325 21.2527 22.6086 21.1936C22.5237 20.9944 22.4032 20.8249 22.2588 20.6716C22.2352 20.6457 22.219 20.6133 22.1688 20.6083C22.085 20.6025 21.7452 20.1387 21.729 20.0565C21.7066 19.958 21.6777 19.8658 21.6499 19.7719C21.629 19.6723 21.6085 19.5758 21.5869 19.4746C21.5811 19.4468 21.5568 19.4248 21.5823 19.3808C21.6421 19.2785 21.6012 19.2344 21.5827 19.1765C21.5576 19.0916 21.5414 18.9981 21.5595 18.8946C21.5742 18.8302 21.6136 18.7665 21.6502 18.7155C21.6831 18.6703 21.7645 18.6838 21.7823 18.6915C21.8236 18.7182 21.863 18.6834 21.8985 18.6765C21.9113 18.6738 21.9275 18.6703 21.9395 18.6699C21.9603 18.6803 22.0746 18.6985 22.2039 18.7506C22.3074 18.7954 22.4349 18.8603 22.4422 18.875C22.4422 18.875 22.5472 18.9877 22.6642 19.0993C22.775 19.2174 22.8858 19.3453 22.9148 19.3673C22.9442 19.3908 22.9449 19.4345 22.9538 19.4727C22.9557 19.4916 23.3141 19.8383 23.3241 19.8549C23.3758 19.9438 23.4697 20.0009 23.4589 20.1372C23.4573 20.1642 23.4739 20.1774 23.4878 20.1928C23.604 20.3249 23.6766 20.4924 23.7674 20.6457C23.8133 20.7245 23.8766 20.7901 23.9311 20.8608C23.9411 20.8739 23.9411 20.8948 23.9469 20.9114C23.9539 20.9319 23.9577 20.9554 23.9709 20.9709C24.1091 21.1315 24.2106 21.3276 24.3744 21.4558C24.4103 21.4894 24.4945 21.7168 24.5412 21.7439C24.5663 21.764 24.5423 21.9184 24.5771 21.9203Z" fill="#231F20"/>
<path fill-rule="evenodd" clip-rule="evenodd" d="M28.5233 21.0153C28.5804 21.0489 28.4862 21.0747 28.3148 21.1906C28.2607 21.2257 28.0881 21.2991 28.0557 21.2856C27.9931 21.2616 27.9298 21.2273 27.88 21.1821C27.8591 21.1628 27.8174 21.0558 27.7734 20.9207C27.7383 20.7979 27.7054 20.655 27.6923 20.5898C27.6587 20.4531 27.6688 20.3295 27.6827 20.2044C27.7205 19.9581 27.7668 19.7179 27.8294 19.487C27.8433 19.4352 27.8668 19.3866 27.9008 19.3422C28.0182 19.1904 28.0784 19.0232 28.1232 18.8479C28.1302 18.8186 28.1464 18.7919 28.1255 18.7522C28.0866 18.6861 28.2723 18.2274 28.3283 18.1823C28.4553 18.0668 28.5634 17.9429 28.687 17.8289C28.704 17.8127 28.7036 17.7842 28.7511 17.7872C28.8615 17.795 28.87 17.7444 28.9028 17.7065C28.9526 17.6579 29.0117 17.6127 29.0812 17.578C29.116 17.5602 29.1797 17.5641 29.2326 17.5625C29.2805 17.561 29.3778 17.6509 29.3847 17.6675C29.4036 17.7158 29.4681 17.7332 29.5141 17.7633C29.5299 17.7733 29.5504 17.7869 29.5619 17.7969C29.5747 17.8077 29.5878 17.9228 29.6083 18.0375C29.6365 18.1595 29.6403 18.266 29.6299 18.2803C29.6299 18.2803 29.5832 18.4004 29.5392 18.5224C29.4982 18.6483 29.4565 18.7788 29.4538 18.8086C29.45 18.8391 29.4168 18.856 29.3917 18.8765C29.377 18.8858 29.2901 19.2781 29.2843 19.292C29.2438 19.3638 29.2465 19.4518 29.1384 19.4989C29.1175 19.5086 29.116 19.5256 29.1117 19.5418C29.075 19.6785 28.9994 19.8005 28.9372 19.9291C28.9051 19.9943 28.8986 20.0658 28.8773 20.1337C28.8739 20.1461 28.8584 20.1554 28.8495 20.1666C28.838 20.1801 28.8233 20.1932 28.821 20.2086C28.7928 20.3712 28.702 20.5257 28.7175 20.6809C28.7148 20.7183 28.6101 20.8693 28.6209 20.9091C28.6279 20.9241 28.5005 20.9971 28.5233 21.0153Z" fill="#231F20"/>
<path fill-rule="evenodd" clip-rule="evenodd" d="M6.99124 10.6668C7.24068 10.7274 7.46656 10.8938 7.56927 11.1683C8.01718 12.368 5.99079 12.4387 6.00237 11.3687C6.00893 10.7949 6.53831 10.5567 6.99124 10.6668Z" fill="#231F20"/>
<path fill-rule="evenodd" clip-rule="evenodd" d="M10.0719 10.3367C10.3214 10.3973 10.5473 10.5637 10.65 10.8383C11.0979 12.0383 9.07147 12.109 9.08306 11.0387C9.08962 10.4649 9.619 10.2266 10.0719 10.3367Z" fill="#231F20"/>
<path fill-rule="evenodd" clip-rule="evenodd" d="M13.1519 10.0067C13.4013 10.0673 13.6276 10.2338 13.7299 10.5083C14.1778 11.708 12.1514 11.7787 12.163 10.7087C12.1696 10.1349 12.6993 9.89629 13.1519 10.0067Z" fill="#231F20"/>
<path fill-rule="evenodd" clip-rule="evenodd" d="M22.73 37.0754C21.1346 37.1271 19.5387 37.1634 17.9432 37.1893C17.3609 37.1986 16.7794 37.2306 16.1975 37.2329C14.1453 37.243 12.0934 37.209 10.0435 37.1657C9.13413 37.1472 8.21901 37.146 7.3174 37.1484C6.73937 37.1545 6.1594 37.1599 5.58021 37.1657C5.01029 37.1754 4.41179 37.1542 3.89709 37.1823C3.83067 37.1912 3.7716 37.1831 3.75731 37.1654C3.73105 37.1464 3.69978 37.119 3.67931 37.0843C3.63105 37.0213 3.65537 36.8777 3.81059 36.7437C4.10637 36.4804 4.6983 36.2645 5.37055 36.2607C7.75218 36.2634 10.0987 36.3421 12.4822 36.4344C13.9059 36.4923 15.3878 36.4325 16.8439 36.4097C18.4456 36.3858 20.048 36.3514 21.65 36.2989C22.6358 36.2672 23.6224 36.2305 24.607 36.1823C26.0994 36.112 27.5987 36.0332 29.0772 35.9162C30.2263 35.8209 31.3484 35.6757 32.4805 35.5432C32.7296 35.5127 32.974 35.4826 33.225 35.4517C34.1579 35.3552 34.4598 35.3841 34.6807 35.5853C34.7309 35.6313 34.7957 35.6757 34.827 35.7236C34.932 35.885 34.5633 36.0583 33.8822 36.1688C31.8616 36.4966 29.7151 36.6912 27.557 36.8387C25.9546 36.9468 24.3421 37.0256 22.7331 37.0958L22.73 37.0754Z" fill="#231F20"/>
<path fill-rule="evenodd" clip-rule="evenodd" d="M22.0929 37.5791C20.7152 37.6263 19.3371 37.6653 17.9594 37.6934L16.4516 37.7313C14.6796 37.749 12.9073 37.7398 11.1365 37.7147C10.3504 37.7104 9.56074 37.7066 8.78077 37.7023C7.77954 37.7039 6.77291 37.7174 5.7794 37.6757C5.15465 37.6548 5.93772 37.1517 7.10034 37.161C9.14797 37.178 11.184 37.2204 13.244 37.2695C14.475 37.3015 15.7565 37.2563 17.0161 37.2328C18.4007 37.2077 19.7862 37.1733 21.1712 37.1231C22.0238 37.098 22.8759 37.0563 23.7274 37.0177C25.0174 36.9544 26.3136 36.8887 27.5921 36.7911C28.5856 36.7119 29.5579 36.6138 30.5379 36.5073C30.7533 36.4841 30.9649 36.4609 31.1823 36.4374C31.9893 36.3628 32.2492 36.3748 32.4345 36.4922C32.4766 36.5188 32.531 36.5443 32.5569 36.5725C32.6434 36.6679 32.3206 36.7787 31.7306 36.8575C29.9807 37.0949 28.1257 37.2478 26.2615 37.3699C24.8772 37.4625 23.4845 37.5266 22.0952 37.5911L22.0929 37.5791Z" fill="#231F20"/>
<path fill-rule="evenodd" clip-rule="evenodd" d="M36.1597 0.864427C36.1408 0.984898 36.1026 1.10537 36.0794 1.2243C36.0705 1.26754 36.0852 1.31002 36.0732 1.35365C36.0319 1.50656 35.979 1.65869 35.9439 1.80928C35.9284 1.87608 35.935 1.94288 35.9462 2.00929C35.9605 2.09385 36.011 2.17919 35.9292 2.26414C35.879 2.31704 35.1701 2.24985 35.1542 2.15448C35.1311 1.98458 35.1504 1.81584 35.2484 1.64286C35.3075 1.53938 35.2666 1.43358 35.2759 1.32894C35.2901 1.21503 35.3044 1.09765 35.3187 0.982195C35.3295 0.911148 35.3423 0.839328 35.3473 0.768281C35.3554 0.660551 35.3739 0.550891 35.3546 0.445865C35.3373 0.364392 35.2847 0.287553 35.2496 0.209169C35.2419 0.191793 35.2261 0.175962 35.2291 0.157428C35.2272 0.124221 35.2504 0.0998953 35.3033 0.0786583C35.3496 0.0585797 35.4075 0.0435208 35.4863 0.0276895L35.589 0.00722482C35.6948 -0.010537 35.8118 0.00529419 35.9219 0.0454514C36.125 0.178279 36.1767 0.338522 36.1867 0.500309C36.1972 0.62078 36.1844 0.742797 36.1806 0.863268L36.1597 0.864427Z" fill="#231F20"/>
<path fill-rule="evenodd" clip-rule="evenodd" d="M41.693 3.80688C41.4787 3.88603 41.2636 3.9648 41.0505 4.04319C40.9717 4.07137 40.9026 4.11925 40.8223 4.14474C40.5381 4.23316 40.2493 4.32274 39.967 4.41039C39.8423 4.4521 39.7222 4.50693 39.606 4.56484C39.4562 4.63859 39.3114 4.73281 39.1303 4.73049C39.0206 4.73204 38.9561 4.18876 39.1098 4.09724C39.3928 3.94241 39.6809 3.80147 40.0095 3.71923C40.2072 3.67212 40.3713 3.53775 40.5528 3.44469C40.7516 3.34044 40.9621 3.25394 41.1694 3.15857C41.2976 3.10027 41.4262 3.04196 41.5532 2.98404C41.7455 2.89253 41.944 2.80874 42.1293 2.70371C42.2757 2.62726 42.3892 2.48941 42.5351 2.4091C42.566 2.38979 42.5965 2.37049 42.6321 2.3589C42.7637 2.31874 42.8278 2.35543 42.9247 2.50486C42.9471 2.53884 42.9707 2.57127 42.9896 2.60564C43.0537 2.7207 43.051 2.84851 42.9935 2.94968C42.834 3.27286 42.5822 3.41033 42.3193 3.55319C42.1204 3.64972 41.91 3.73158 41.703 3.82464L41.693 3.80688Z" fill="#231F20"/>
<path fill-rule="evenodd" clip-rule="evenodd" d="M27.2594 7.01468C25.2342 6.94788 23.1889 6.96989 21.1497 6.98842C19.1106 7.01468 17.0726 7.07453 15.04 7.1923C13.5565 7.27879 12.0784 7.41857 10.61 7.58885C9.31647 7.74098 8.02526 7.93057 6.77846 8.23947C6.15911 8.39585 5.54131 8.58119 4.99841 8.85303C4.72658 8.98663 4.48216 9.14996 4.29759 9.33144L4.19025 9.47315C4.15241 9.52141 4.15125 9.5608 4.12461 9.61254C4.08638 9.7473 4.05086 9.88939 4.0246 10.0469C3.81571 11.2957 3.75315 12.6209 3.69523 13.9217C3.64427 15.2291 3.62535 16.5397 3.63075 17.8502C3.64349 20.1754 3.74504 22.5154 3.94274 24.8124C4.06862 26.2886 4.24353 27.7624 4.47135 29.2235C4.69878 30.6839 4.97138 32.1369 5.38338 33.5327C5.66718 34.383 5.43628 34.3706 4.96521 33.693C4.50494 33.013 3.94467 31.6148 3.65971 29.9004C3.17126 26.8631 2.95271 23.8131 2.85657 20.7581C2.77316 17.7015 2.78784 14.6418 3.05697 11.5594C3.10523 11.0968 3.14925 10.6346 3.22648 10.1605C3.26509 9.9226 3.3064 9.68629 3.38209 9.42565C3.42108 9.29978 3.49406 9.10671 3.58673 9.004L3.72381 8.82368L3.87749 8.68004C4.29566 8.31168 4.75477 8.10549 5.21001 7.91744C5.66796 7.74098 6.13092 7.60082 6.59582 7.48035C8.4585 7.01004 10.3494 6.77991 12.2236 6.60036C16.3463 6.23277 20.4779 6.16597 24.6013 6.16211C25.872 6.16404 27.1447 6.18373 28.4182 6.24937C29.6912 6.31926 30.967 6.42043 32.2354 6.67141C32.7154 6.76987 33.1953 6.89189 33.6664 7.08109C33.9008 7.18033 34.1359 7.28806 34.3556 7.45061C34.5742 7.61781 34.7792 7.81435 34.912 8.02633C35.2117 8.44335 35.4298 8.89473 35.6109 9.35268C35.8001 9.80908 35.9407 10.2774 36.0774 10.745C36.5871 12.6251 36.8508 14.5387 37.0589 16.4389C37.3724 19.3958 37.5458 22.3041 37.618 25.2395C37.6319 25.8859 37.6508 26.5183 37.6512 27.1705C37.6493 29.5877 37.5528 30.3568 37.3184 30.8665C37.2639 30.9827 37.2087 31.1364 37.1558 31.2028C36.9743 31.426 36.8844 30.4418 36.8635 28.683C36.8296 26.0731 36.7577 23.3938 36.5956 20.6859C36.4268 17.9822 36.1978 15.2338 35.6692 12.5649C35.4661 11.5795 35.2283 10.5948 34.8649 9.69363C34.6877 9.24263 34.475 8.8094 34.212 8.45995C34.1514 8.36072 34.0769 8.30396 34.012 8.23098L33.9178 8.14796L33.8004 8.06726C33.6305 7.96262 33.4285 7.86763 33.2115 7.78809C32.3281 7.47571 31.3137 7.33092 30.3137 7.2228C29.3066 7.11855 28.2861 7.06526 27.264 7.03514L27.2594 7.01468Z" fill="#231F20"/>
<path fill-rule="evenodd" clip-rule="evenodd" d="M22.2655 34.9375L18.2093 34.956L16.73 34.9796C14.9913 34.9831 13.2518 34.9383 11.5131 34.9163C10.7412 34.8981 9.96584 34.9066 9.19938 34.8977C8.21514 34.9008 7.22357 34.8919 6.24088 34.7495C5.63195 34.6715 6.44089 34.3278 7.55989 34.2927C9.555 34.3008 11.5571 34.2942 13.5781 34.339C14.787 34.3637 16.045 34.3081 17.2814 34.2934L21.3631 34.2398C22.2007 34.2251 23.0382 34.2104 23.8749 34.1957C25.1429 34.1672 26.4172 34.1479 27.6748 34.095C28.6528 34.0525 29.61 33.9726 30.5765 33.9096C30.7893 33.8961 30.9974 33.8749 31.2125 33.8718C32.0094 33.8629 32.2658 33.9394 32.4407 34.0911C32.4805 34.127 32.5326 34.1618 32.5562 34.1961C32.6354 34.3104 32.3133 34.4278 31.7341 34.527C30.0128 34.7664 28.1891 34.8205 26.3585 34.8769C24.9981 34.9031 23.6316 34.9294 22.2675 34.9553L22.2655 34.9375Z" fill="#231F20"/>
<path fill-rule="evenodd" clip-rule="evenodd" d="M2.70229 24.1735C2.62352 22.9611 2.56637 21.7486 2.5181 20.5362C2.49957 20.0937 2.45362 19.6527 2.44358 19.2106C2.41115 17.6499 2.42003 16.088 2.46945 14.5257C2.49532 13.8323 2.49301 13.1353 2.51154 12.443C2.54398 11.5537 2.50691 10.6521 2.86021 9.74433C2.9803 9.45628 3.21082 9.6088 3.40156 9.89299C3.5842 10.1698 3.77726 10.5923 3.72977 11.0653C3.58806 12.7781 3.59656 14.5659 3.47338 16.3606C3.4062 17.4375 3.50041 18.5561 3.53902 19.657C3.58034 20.8679 3.63015 22.0807 3.70274 23.2916C3.7456 24.0368 3.79696 24.7824 3.86144 25.5253C3.96183 26.6509 4.04601 27.7849 4.21397 28.8924C4.34487 29.7527 4.53562 30.5871 4.74915 31.408C4.79471 31.5902 4.85224 31.7621 4.90321 31.9401C4.99472 32.269 5.05303 32.4845 5.06809 32.6332C5.07542 32.7953 5.03372 32.8988 4.98237 33.0123C4.95959 33.0641 4.94839 33.1266 4.92985 33.166C4.89742 33.232 4.82637 33.2216 4.67501 33.134C4.5889 33.0911 4.52365 33.0185 4.45492 32.9305C4.37846 32.8421 4.31939 32.7258 4.26533 32.6007C3.93596 31.8451 3.72939 31.0616 3.53902 30.2639C3.35523 29.4658 3.20696 28.6522 3.08185 27.8359C2.88415 26.6246 2.77488 25.3991 2.67603 24.1774L2.70229 24.1735Z" fill="#231F20"/>
</svg>
