<svg width="30" height="30" viewBox="0 0 30 30" fill="none" xmlns="http://www.w3.org/2000/svg">
<path d="M13.75 8.75C13.75 8.41848 13.8817 8.10054 14.1161 7.86612C14.3505 7.6317 14.6685 7.5 15 7.5H21.25C21.5815 7.5 21.8995 7.6317 22.1339 7.86612C22.3683 8.10054 22.5 8.41848 22.5 8.75V15C22.5 15.3315 22.3683 15.6495 22.1339 15.8839C21.8995 16.1183 21.5815 16.25 21.25 16.25C20.9185 16.25 20.6005 16.1183 20.3661 15.8839C20.1317 15.6495 20 15.3315 20 15V11.7675L13.385 18.385C13.2688 18.5012 13.1308 18.5934 12.979 18.6563C12.8271 18.7192 12.6644 18.7516 12.5 18.7516C12.3356 18.7516 12.1729 18.7192 12.021 18.6563C11.8692 18.5934 11.7312 18.5012 11.615 18.385C11.4988 18.2688 11.4066 18.1308 11.3437 17.979C11.2808 17.8271 11.2484 17.6644 11.2484 17.5C11.2484 17.3356 11.2808 17.1729 11.3437 17.021C11.4066 16.8692 11.4988 16.7312 11.615 16.615L18.2325 10H15C14.6685 10 14.3505 9.8683 14.1161 9.63388C13.8817 9.39946 13.75 9.08152 13.75 8.75ZM5.3325 4.23C5.75441 2.9958 6.55173 1.92444 7.61283 1.16594C8.67393 0.407434 9.94568 -0.000238858 11.25 1.04994e-07H23.75C25.4076 1.04994e-07 26.9973 0.65848 28.1694 1.83058C29.3415 3.00269 30 4.5924 30 6.25V18.75C30 21.495 28.23 23.825 25.77 24.6675V25.5775C25.77 26.415 25.4775 27.485 24.79 28.3675C24.0675 29.2975 22.92 30 21.3475 30H6.9225C6.01145 30.0063 5.10823 29.8315 4.26534 29.4857C3.42244 29.1399 2.65669 28.63 2.01258 27.9856C1.36847 27.3413 0.858856 26.5754 0.513353 25.7323C0.167851 24.8893 -0.00664795 23.986 -6.46251e-08 23.075V8.6575C-6.46251e-08 7.285 0.4925 6.1425 1.365 5.35C2.215 4.5775 3.3275 4.2325 4.4225 4.2325H5.3325V4.23ZM5 6.73H4.425C3.9226 6.70991 3.4307 6.87744 3.045 7.2C2.75 7.4675 2.5 7.91 2.5 8.655V23.0775C2.5 25.56 4.44 27.5025 6.925 27.5025H21.3475C22.095 27.5025 22.5325 27.2 22.8175 26.8325C23.0928 26.4703 23.2499 26.0321 23.2675 25.5775V25H11.25C9.5924 25 8.00268 24.3415 6.83058 23.1694C5.65848 21.9973 5 20.4076 5 18.75V6.73ZM11.25 2.5C10.2554 2.5 9.30161 2.89509 8.59835 3.59835C7.89509 4.30161 7.5 5.25544 7.5 6.25V18.75C7.5 19.7446 7.89509 20.6984 8.59835 21.4017C9.30161 22.1049 10.2554 22.5 11.25 22.5H23.75C24.7446 22.5 25.6984 22.1049 26.4017 21.4017C27.1049 20.6984 27.5 19.7446 27.5 18.75V6.25C27.5 5.25544 27.1049 4.30161 26.4017 3.59835C25.6984 2.89509 24.7446 2.5 23.75 2.5H11.25Z" fill="black"/>
</svg>
