<svg width="36" height="47" viewBox="0 0 36 47" fill="none" xmlns="http://www.w3.org/2000/svg">
<path fill-rule="evenodd" clip-rule="evenodd" d="M33.988 10.7916C33.8213 10.639 33.5935 10.5298 33.3541 10.4494C33.1152 10.367 32.8627 10.3083 32.606 10.2641C32.0925 10.1757 31.5658 10.1315 31.0361 10.1174C29.978 10.0881 28.9093 10.1412 27.8636 10.2654C27.6961 10.2956 27.6111 9.17287 27.7947 9.18223C28.9059 9.17457 30.004 9.24174 31.0999 9.3935C31.647 9.46959 32.1932 9.57586 32.7322 9.73187C33.0013 9.80967 33.2691 9.90319 33.5297 10.0269C33.7886 10.1485 34.0483 10.3024 34.2558 10.5396C34.4356 10.77 34.127 10.9124 33.988 10.7916Z" fill="#231F20"/>
<path fill-rule="evenodd" clip-rule="evenodd" d="M0.702707 27.3976L0.462953 21.4467L0.356679 19.2774C0.274211 16.726 0.221499 14.1737 0.175164 11.6214C0.162411 10.4886 0.110975 9.351 0.0735663 8.22705C0.0272309 6.78428 -0.0837189 5.33215 0.1114 3.88683C0.167512 3.43623 0.299292 3.49744 0.486759 3.87705C0.58113 4.06707 0.69378 4.33658 0.807705 4.66135C0.907603 4.98655 0.969241 5.36701 0.990071 5.78063C1.11037 8.71633 1.16649 11.6537 1.16266 14.6239C1.16053 16.3999 1.28721 18.2436 1.36203 20.0579L1.61241 26.0449C1.6715 27.2734 1.73059 28.502 1.78967 29.7292C1.89 31.5877 1.98267 33.4564 2.1221 35.2988C2.23135 36.7314 2.39926 38.1312 2.54719 39.5429C2.58205 39.8537 2.61606 40.1581 2.65134 40.4709C2.72828 41.6357 2.68705 42.0102 2.46558 42.2767C2.42009 42.3392 2.38098 42.4213 2.34187 42.4617C2.23177 42.6053 1.94781 42.1241 1.81433 41.2773C1.39816 38.7574 1.2141 36.0844 1.02408 33.4003C0.890174 31.4066 0.787726 29.4015 0.678476 27.4014L0.702707 27.3976Z" fill="#231F20"/>
<path fill-rule="evenodd" clip-rule="evenodd" d="M32.7582 31.2302C33.1684 26.0169 33.619 20.8065 33.9557 15.6003C34.0152 14.6511 34.0629 13.7006 34.0935 12.7552C34.1092 12.2825 34.1228 11.8089 34.1232 11.3439C34.1279 11.1084 34.1207 10.8814 34.1168 10.6531C34.1147 10.546 34.102 10.4239 34.0986 10.3466C34.0956 10.3053 34.0952 10.2832 34.082 10.2556C34.0688 10.2424 34.0556 10.2293 34.0395 10.2186C34.0267 10.2072 34.0123 10.2003 33.951 10.1668C33.8507 10.1124 33.7317 10.0643 33.6071 10.021C33.3559 9.93466 33.0779 9.87047 32.7948 9.81819C32.226 9.71574 31.6296 9.66303 31.0311 9.632C30.4317 9.60096 29.8268 9.59416 29.221 9.60182L28.3122 9.62519C27.8594 9.64177 27.2928 9.68556 26.7924 9.72084L26.8996 8.92081L26.9442 8.52505L26.9761 8.18837L27.0479 7.25657C27.0892 6.63295 27.121 6.00764 27.144 5.38232C27.167 4.75701 27.1818 4.13127 27.1801 3.51063L27.1738 3.04728L27.1585 2.64514C27.1546 2.58137 27.1508 2.51633 27.1381 2.45129C27.1389 2.36245 27.0445 2.38923 26.9867 2.3854L26.8507 2.3888L26.5412 2.40411L25.8925 2.44066L24.59 2.52058L21.9804 2.67489C18.9971 2.836 15.9925 2.97331 13.0185 2.96523C11.1081 2.95928 9.18842 2.90487 7.26869 2.68169C6.30967 2.56267 5.35023 2.40623 4.40185 2.14947C3.46281 1.88166 2.49657 1.54626 1.69229 0.832105C1.57242 0.713504 1.46572 0.620408 1.39558 0.51796C1.32841 0.410836 1.28038 0.320716 1.24892 0.2476C1.186 0.100942 1.1894 0.0248498 1.24212 0.00529538C1.29483 -0.014259 1.39728 0.021449 1.53246 0.0941402C1.60005 0.130273 1.67529 0.175758 1.75563 0.22847C1.84745 0.270555 1.94947 0.31774 2.06255 0.370027C2.5055 0.573222 3.12996 0.787045 3.93679 0.94433C4.7381 1.10884 5.69499 1.2504 6.74795 1.40386C8.39349 1.64319 10.0803 1.74266 11.77 1.79027C13.461 1.83703 15.1602 1.82895 16.8618 1.78899C18.5639 1.74818 20.2694 1.67719 21.9783 1.5909C22.8335 1.54456 23.6897 1.49823 24.5462 1.45189L25.8356 1.3809L26.4851 1.34902L26.8341 1.33372L27.4186 1.32139C27.7761 1.3775 28.072 1.59388 28.1349 2.00239C28.1706 2.20134 28.1893 2.41218 28.2012 2.61665L28.2123 2.98394C28.2203 3.46429 28.2123 3.93615 28.1982 4.408C28.1744 5.20038 28.1379 5.99403 28.0911 6.79491C28.0635 7.19578 28.0363 7.59834 28.0082 8.00261L27.9708 8.43068L27.9466 8.61985L28.5328 8.59391C28.9345 8.57861 29.3375 8.56968 29.7418 8.56756C30.5511 8.56458 31.3652 8.58499 32.1886 8.66916C32.6005 8.71209 33.015 8.77075 33.4354 8.8681C33.6454 8.91699 33.8571 8.97522 34.0718 9.05514C34.2966 9.14824 34.4752 9.2018 34.7702 9.42583C34.8374 9.47514 34.8977 9.53125 34.9589 9.58736L35.0508 9.67153C35.0835 9.69789 35.0742 9.74847 35.0878 9.78631C35.1158 9.94402 35.1681 10.1209 35.1689 10.2637C35.1889 10.4864 35.194 10.6943 35.1966 10.8996C35.2025 11.312 35.1957 11.715 35.1834 12.1171C35.0946 14.7697 34.8956 17.3934 34.7069 20.0239L34.0964 27.903C33.8426 31.1346 33.5829 34.3666 33.3644 37.596C33.2828 38.819 33.2037 40.0433 33.14 41.2671C33.1098 41.8789 33.0809 42.4906 33.0643 43.1002L33.0532 43.5571L33.0498 44.1038L33.0452 44.2679L33.0426 44.3504C33.0379 44.3754 33.0039 44.3861 32.9861 44.4048L32.7238 44.6067C32.6418 44.6777 32.5351 44.7291 32.4564 44.7725C32.3799 44.8112 32.3051 44.86 32.2273 44.889C30.9852 45.3923 29.7299 45.4416 28.4933 45.5062C27.2554 45.5423 26.0247 45.5121 24.8026 45.4475C22.9016 45.3485 21.0273 45.1874 19.1624 45.0067C18.2319 44.9132 17.3026 44.8192 16.3729 44.7257C15.9138 44.6815 15.4386 44.6305 15.0063 44.6105C14.5833 44.608 14.0927 44.6258 13.6413 44.6471C12.8298 44.6866 12.0429 44.7674 11.2386 44.88C9.74954 45.0964 8.79308 45.3574 8.10783 45.5036C7.4247 45.6588 7.01448 45.7111 6.6557 45.6886C6.49246 45.6796 6.28332 45.6881 6.17704 45.6575C5.99808 45.6061 6.18342 45.4237 6.68673 45.1483C7.19175 44.8796 8.02153 44.5251 9.14166 44.2309C10.8017 43.7841 12.5501 43.5826 14.2917 43.5282C14.5144 43.5231 14.7155 43.5146 14.9574 43.515C15.2239 43.5193 15.428 43.5401 15.6537 43.5576C16.0856 43.5996 16.5188 43.6421 16.9532 43.6842C17.8119 43.7739 18.6744 43.8636 19.5395 43.9537C21.2671 44.1268 23.0053 44.2845 24.7456 44.3771C26.4809 44.4634 28.239 44.5136 29.916 44.3312C30.5312 44.2598 31.1475 44.1518 31.6504 43.9576C31.7112 43.9325 31.7775 43.9108 31.8341 43.884L31.911 43.8407C31.9399 43.8249 31.9654 43.8113 31.9625 43.8143L31.9697 43.8118L31.9701 43.8101V43.6247L31.9807 43.1214C32.0152 41.7836 32.0917 40.4646 32.172 39.1425C32.337 36.5014 32.5342 33.8667 32.7306 31.2345L32.7582 31.2302Z" fill="#231F20"/>
<path fill-rule="evenodd" clip-rule="evenodd" d="M35.1645 9.8057C34.4189 8.30511 33.2367 6.96309 32.1574 5.69716C30.962 4.29562 29.7025 2.85242 28.221 1.7442C28.0612 1.62475 27.6735 1.76418 27.5111 1.82199C27.4473 1.84452 27.0303 2.0035 27.1732 2.1102C28.6589 3.2214 29.9244 4.6697 31.1193 6.07719C32.1736 7.31932 33.3256 8.63329 34.0559 10.1028C34.1787 10.3494 35.2389 9.95533 35.1645 9.8057Z" fill="#231F20"/>
<path fill-rule="evenodd" clip-rule="evenodd" d="M6.37891 14.3327C6.62291 14.1453 6.84779 14.0381 7.06756 13.9812C7.29286 13.9127 7.51859 13.8962 7.74134 13.9021C9.23895 13.9315 10.7553 13.8885 12.2673 13.8719C13.5694 13.8673 14.874 13.8626 16.1761 13.8579C18.4189 13.8209 20.6617 13.7533 22.9062 13.6947L24.8965 13.6462C25.532 13.6186 26.1671 13.5918 26.8056 13.582C26.9131 13.5799 27.0258 13.5599 27.1274 13.5841C27.4003 13.65 27.4632 13.9013 27.2638 14.0926C27.2183 14.1359 27.1682 14.2073 27.1189 14.2086C26.6266 14.2222 26.2393 14.5661 25.7207 14.5725C24.7621 14.5648 23.8027 14.6703 22.8424 14.7183C22.4585 14.7374 22.073 14.7413 21.6887 14.734C21.2011 14.7166 20.7021 14.6987 20.214 14.6809C19.542 14.6681 16.3822 14.7221 13.3488 14.7298C11.8316 14.7302 10.3472 14.7247 9.21939 14.6873C8.65571 14.6732 8.18003 14.6439 7.83783 14.629C7.4918 14.6023 7.28011 14.5772 7.2427 14.5729C7.00295 14.5457 6.75597 14.4441 6.37891 14.3327Z" fill="#231F20"/>
<path fill-rule="evenodd" clip-rule="evenodd" d="M7.15234 20.26C7.37084 20.0657 7.55788 19.9573 7.74535 19.8867C7.93622 19.8119 8.12624 19.7894 8.3137 19.789C9.58729 19.7626 10.8766 19.6835 12.1651 19.6321C13.2746 19.5858 14.3866 19.5892 15.4991 19.5573C17.4129 19.502 19.3292 19.4421 21.2523 19.4476L22.9595 19.4757C23.5062 19.4846 24.0528 19.488 24.6029 19.5309C24.6952 19.5365 24.7938 19.525 24.8784 19.556C25.1075 19.6415 25.1356 19.8961 24.9485 20.0721C24.906 20.112 24.8567 20.1796 24.8146 20.1779C24.3946 20.1605 24.0443 20.4619 23.6065 20.4457C22.7992 20.382 21.9831 20.4491 21.1698 20.4695C20.8442 20.4793 20.5182 20.4725 20.1926 20.4559C19.7806 20.4313 19.3547 20.4058 18.9424 20.3816C18.3719 20.3586 15.6878 20.3981 13.1075 20.4674C11.8173 20.4989 10.5531 20.5261 9.59111 20.5252C8.63125 20.532 7.96555 20.4883 7.89966 20.4734C7.69434 20.4521 7.47967 20.3654 7.15234 20.26Z" fill="#231F20"/>
<path fill-rule="evenodd" clip-rule="evenodd" d="M7.68652 26.4913C7.91607 26.2974 8.11204 26.1916 8.31226 26.1197C8.51461 26.0453 8.71653 26.0241 8.91717 26.0232C10.2724 25.999 11.6429 25.9259 13.0121 25.8796C14.1909 25.837 15.3722 25.8455 16.554 25.8175C18.5864 25.769 20.6209 25.7138 22.6622 25.7214C23.265 25.7197 23.8695 25.7469 24.4739 25.7499C25.0546 25.7614 25.634 25.7627 26.2185 25.809C26.3167 25.8149 26.4213 25.8035 26.5114 25.8353C26.755 25.9216 26.7865 26.1767 26.5888 26.3518C26.5437 26.3918 26.4919 26.459 26.4472 26.4568C26.0013 26.4369 25.6306 26.7391 25.1656 26.7221C24.3073 26.6562 23.4397 26.7229 22.5746 26.7429C22.2286 26.7527 21.8826 26.7429 21.5361 26.7289C21.0974 26.7034 20.646 26.677 20.2077 26.6511C19.6011 26.6277 16.7487 26.66 14.0073 26.7187C12.6368 26.745 11.2943 26.7667 10.2732 26.7625C9.25427 26.7663 8.54989 26.7221 8.47975 26.7072C8.26253 26.6851 8.03553 26.5997 7.68652 26.4913Z" fill="#231F20"/>
<path fill-rule="evenodd" clip-rule="evenodd" d="M12.2109 33.0199C12.4443 32.6139 12.5859 32.517 12.7512 32.5093C13.2873 32.4868 13.8352 32.4537 14.3815 32.4418C14.8521 32.4303 15.3239 32.4681 15.7962 32.4639C16.6085 32.4558 17.4213 32.4252 18.2345 32.3975C18.4747 32.3886 18.7149 32.3903 18.9551 32.3733C19.1846 32.3525 19.4146 32.3312 19.6441 32.3206C19.6833 32.3185 19.7232 32.2981 19.7602 32.3223C19.8601 32.3878 19.889 32.639 19.8214 32.8303C19.8061 32.8736 19.7891 32.9451 19.7713 32.9472C19.5927 32.9616 19.458 33.3043 19.2692 33.3068C18.9194 33.2924 18.5712 33.385 18.2222 33.4199C18.0828 33.4343 17.9421 33.4318 17.8018 33.4195C17.6228 33.4033 17.4439 33.3604 17.2649 33.3447C17.02 33.323 15.8702 33.3238 14.7658 33.3064C14.2127 33.297 13.6716 33.2826 13.2579 33.2613C12.8465 33.2448 12.5565 33.2095 12.5281 33.1976C12.4409 33.175 12.3491 33.1023 12.2109 33.0199Z" fill="#231F20"/>
<path fill-rule="evenodd" clip-rule="evenodd" d="M8.77354 44.8888C8.77354 44.8888 13.6349 43.5175 19.8638 44.6584C26.0932 45.7994 32.7157 44.1934 32.7157 44.1934C32.7157 44.1934 31.1535 47.8998 20.4615 45.9762C14.3117 44.8701 9.46049 46.596 8.37097 46.5964C7.73078 46.5968 8.77354 44.8888 8.77354 44.8888Z" fill="#231F20"/>
</svg>
