<svg width="53" height="39" viewBox="0 0 53 39" fill="none" xmlns="http://www.w3.org/2000/svg">
<path fill-rule="evenodd" clip-rule="evenodd" d="M29.6232 12.2158L27.544 12.5674L26.7889 12.7153C25.8979 12.874 25.0057 13.033 24.1156 13.1912C23.7209 13.2703 23.3257 13.3495 22.9343 13.4282C22.4294 13.5309 21.9386 13.6609 21.3981 13.6763C21.2257 13.6779 21.2585 13.5789 21.3836 13.4708C21.5033 13.3693 21.7257 13.2318 22.0111 13.178C23.0271 12.968 24.0514 12.7567 25.0952 12.6022C25.7194 12.5078 26.3577 12.355 26.9914 12.234L29.0868 11.8525L30.3792 11.6314C31.0332 11.5274 31.6901 11.423 32.3396 11.3199C32.8453 11.2428 33.3361 11.1351 33.8431 11.0701L34.1757 11.0217C34.5982 10.9893 34.7365 11.0204 34.8268 11.1455C34.8475 11.1741 34.8745 11.2027 34.8861 11.2321C34.925 11.3311 34.7581 11.4209 34.4644 11.4611C33.554 11.6015 32.6461 11.7411 31.7212 11.884C31.0245 11.9979 30.3245 12.1122 29.6261 12.2266L29.6232 12.2158Z" fill="#231F20"/>
<path fill-rule="evenodd" clip-rule="evenodd" d="M11.5687 19.8682C12.3714 20.2787 13.1799 20.6805 13.9934 21.0723L14.891 21.4857C15.9389 21.9893 16.9877 22.4934 18.0348 22.9967C18.5003 23.2203 18.9734 23.4341 19.4397 23.647C20.0387 23.9232 20.6521 24.1751 21.2005 24.5769C21.3724 24.6995 21.2995 24.7508 21.1032 24.7421C21.0042 24.7384 20.8774 24.7189 20.7312 24.6866C20.5813 24.6547 20.4077 24.6174 20.2408 24.5346C19.0326 23.9825 17.785 23.4805 16.5789 22.8637C15.8544 22.5009 15.0716 22.1861 14.3173 21.8427C13.4881 21.4637 12.6634 21.0744 11.8408 20.6796L10.3269 19.9399C9.56356 19.5646 8.80764 19.1649 8.05421 18.7818C7.47102 18.4782 6.8812 18.2118 6.30422 17.9028C6.17664 17.8349 6.04576 17.7811 5.92522 17.6978C5.46919 17.4058 5.35653 17.2637 5.3499 17.0678C5.34824 17.0235 5.33954 16.9754 5.34658 16.9378C5.36854 16.816 5.61623 16.8359 5.96747 16.9991C7.00753 17.4841 8.05753 18.0723 9.14729 18.6182C9.95042 19.0324 10.7581 19.4528 11.5745 19.8537L11.5687 19.8682Z" fill="#231F20"/>
<path fill-rule="evenodd" clip-rule="evenodd" d="M21.0986 17.269C21.0593 17.6902 21.0199 18.1123 20.9806 18.5327C20.9678 18.6863 20.9707 18.8404 20.9562 18.9941C20.9069 19.5355 20.8572 20.0793 20.8075 20.6194C20.7897 20.8597 20.7797 21.102 20.7768 21.341C20.7731 21.6475 20.7859 21.9569 20.7329 22.2597C20.7023 22.451 20.3129 22.2066 20.2963 21.8471C20.2777 21.2155 20.2934 20.5879 20.3846 19.9571C20.4363 19.5802 20.4247 19.185 20.4467 18.7982L20.5295 17.5224L20.5855 16.7375C20.6124 16.3416 20.6472 15.9439 20.6584 15.5496C20.6658 15.2431 20.6459 14.9416 20.6434 14.6375C20.643 14.5704 20.6381 14.5046 20.6405 14.4371C20.6443 14.3124 20.6588 14.2275 20.6878 14.1712C20.7023 14.143 20.7205 14.121 20.7441 14.1036C20.7694 14.0618 20.8108 14.027 20.8472 14.0262C20.8812 14.0225 20.9044 14.032 20.916 14.0531C20.9338 14.0904 20.8949 14.003 20.9123 14.0427C20.9429 14.1115 20.9421 14.107 20.952 14.1214C20.969 14.1459 21.0075 14.167 21.0444 14.1513C21.0813 14.1132 21.0866 14.1517 21.1011 14.1885C21.1136 14.2238 21.1227 14.2639 21.1285 14.3091C21.2001 14.8488 21.2063 15.4216 21.1807 15.9924C21.1645 16.4169 21.1401 16.8436 21.1127 17.269H21.0986Z" fill="#231F20"/>
<path fill-rule="evenodd" clip-rule="evenodd" d="M12.9911 14.6359C12.9762 15.024 12.9675 15.4142 12.9646 15.8044C12.9679 15.9473 12.9716 16.0873 12.9749 16.231C12.9675 16.7334 12.9596 17.2396 12.9521 17.7412C12.9501 17.9648 12.9579 18.1902 12.9675 18.4126C12.9753 18.6996 13.0085 18.9879 12.9314 19.2845C12.9086 19.376 12.8092 19.3466 12.7144 19.2621C12.6216 19.1772 12.5301 19.0467 12.5255 18.8877C12.5164 18.3256 12.4899 17.7441 12.523 17.1584C12.545 16.8075 12.5081 16.4439 12.5023 16.0852C12.4969 15.69 12.4986 15.2949 12.5015 14.8993C12.5056 14.6558 12.5098 14.4118 12.5139 14.1691C12.5259 13.7996 12.5379 13.4297 12.5504 13.0636C12.5557 12.7786 12.5354 12.4966 12.5495 12.2128C12.5508 12.1507 12.5512 12.089 12.5582 12.026C12.5843 11.7932 12.6245 11.7224 12.7413 11.6872C12.7678 11.6793 12.7947 11.6677 12.8204 11.6648C12.9074 11.6541 12.9695 11.756 12.9844 11.9245C13.0362 12.4232 13.0325 12.9397 13.0238 13.4633C13.0167 13.8526 13.0101 14.2445 13.0035 14.6355L12.9911 14.6359Z" fill="#231F20"/>
<path fill-rule="evenodd" clip-rule="evenodd" d="M23.7999 1.03832C24.089 0.94554 24.3793 0.880097 24.6705 0.819623C24.7765 0.797256 24.8772 0.756251 24.9845 0.740097C25.3622 0.677967 25.747 0.648144 26.1256 0.599683C26.2946 0.581458 26.4603 0.547494 26.6259 0.52347C26.8393 0.49489 27.0546 0.467553 27.2762 0.476251C27.345 0.478736 27.333 0.46631 27.2808 0.490334C27.2274 0.51063 27.1429 0.599683 27.0335 0.666369C26.6504 0.919446 26.2532 1.10459 25.8228 1.18909C25.5639 1.23341 25.3142 1.3498 25.0565 1.41897C24.7741 1.49601 24.4858 1.55814 24.2016 1.62566C24.0264 1.66666 23.8516 1.70725 23.6843 1.75572C23.5551 1.79755 23.4486 1.82282 23.3898 1.87873C23.321 1.93796 23.2784 2.04814 23.256 2.16867C23.2245 2.35879 23.2461 2.56382 23.2291 2.77589C23.2258 2.8227 23.2225 2.87157 23.2196 2.91672C23.2005 3.09483 23.1574 3.15033 23.152 3.18636C23.1496 3.19465 23.1479 3.20542 23.1475 3.21039C23.1479 3.22778 23.1508 3.15406 23.1015 3.03187C23.0009 2.66323 22.6886 2.32938 22.865 1.71595C22.9073 1.60536 22.9756 1.48317 23.08 1.39205C23.1752 1.29885 23.2867 1.24832 23.3538 1.21187C23.5091 1.13027 23.6491 1.07808 23.7941 1.02258L23.7999 1.03832Z" fill="#231F20"/>
<path fill-rule="evenodd" clip-rule="evenodd" d="M19.9435 6.50678C19.9534 6.5482 19.9385 6.51548 19.9281 6.52335C19.9157 6.52127 19.9103 6.51589 19.8921 6.51423C19.8532 6.51133 19.8213 6.50222 19.7745 6.49932C19.6858 6.49104 19.5864 6.48482 19.4845 6.47944C19.4079 6.47737 19.3379 6.50305 19.258 6.49601C18.9796 6.4724 18.6801 6.41607 18.3852 6.39453C18.2535 6.38003 18.1255 6.38997 17.9959 6.38624C17.8298 6.37755 17.6562 6.36719 17.4848 6.29139C17.4326 6.26903 17.4413 6.29139 17.4819 6.26861C17.5237 6.25246 17.5858 6.1398 17.6629 6.06731C17.9325 5.78027 18.2179 5.59512 18.5584 5.57938C18.7622 5.57897 18.956 5.47293 19.1668 5.4456C19.4009 5.41867 19.6378 5.4166 19.9174 5.45554C20.0752 5.47128 20.3751 5.56364 20.5117 5.74382C20.7321 6.01139 20.7317 6.27151 20.7698 6.48565C20.7934 6.65547 20.8224 6.8108 20.8008 6.97234C20.798 7.00755 20.7967 7.04151 20.7909 7.07672C20.7727 7.20802 20.7371 7.26352 20.742 7.2921C20.7416 7.29914 20.7437 7.30743 20.7449 7.31074C20.7553 7.31944 20.7197 7.2805 20.6244 7.20388C20.5105 7.08169 20.3775 6.94956 20.2533 6.83027C20.1489 6.70725 20.0371 6.59749 19.9658 6.52376C19.9364 6.50098 19.9095 6.47488 19.8863 6.47033C19.8743 6.46701 19.8643 6.45956 19.8594 6.46329L19.8519 6.46411C19.8474 6.46743 19.8515 6.46329 19.8656 6.45127C19.8764 6.44092 19.8797 6.44092 19.8871 6.43471C19.9107 6.41772 19.9397 6.38542 19.9542 6.36678C19.9638 6.35808 19.9729 6.34607 19.9807 6.33074C19.9782 6.33447 19.977 6.3411 19.977 6.3411V6.34151V6.34193C19.9675 6.37092 20.0611 6.08761 20.0213 6.20772L20.0209 6.20855L20.0205 6.2098L20.0193 6.21269L20.0147 6.22305L20.0068 6.24459L19.9782 6.33033C19.9617 6.38832 19.9501 6.44672 19.9435 6.50553V6.50678Z" fill="#231F20"/>
<path fill-rule="evenodd" clip-rule="evenodd" d="M7.15453 29.0219C8.37063 29.7886 9.595 30.5483 10.8272 31.2942C11.2767 31.5672 11.7426 31.8116 12.1908 32.0858L16.9309 34.9968C17.635 35.4226 18.3553 35.8285 19.0682 36.2265C19.9865 36.7327 20.8952 37.2658 21.7613 37.8655C22.0301 38.054 21.9311 38.1377 21.6225 38.1203C21.3152 38.1004 20.7888 37.9989 20.2412 37.74C19.2666 37.2902 18.3288 36.7749 17.3931 36.2501C16.4575 35.7262 15.5288 35.1844 14.611 34.6136C13.5113 33.9352 12.3221 33.3068 11.1801 32.6412C9.92553 31.9081 8.67713 31.1621 7.43246 30.4083C6.66661 29.9435 5.90241 29.4767 5.14235 28.9979C4.85365 28.8198 4.56785 28.6301 4.28164 28.4429C4.13874 28.3518 3.99626 28.2511 3.85377 28.15C3.77259 28.0904 3.65454 28.0179 3.56922 27.9429L3.49963 27.8866C3.48845 27.8597 3.48223 27.829 3.47354 27.8005C3.45531 27.7429 3.44081 27.6845 3.43212 27.6253C3.37786 27.3618 3.3733 27.2239 3.353 27.0441L3.31034 26.533C3.28508 26.1942 3.25981 25.8562 3.23496 25.5195C3.15667 24.474 3.03117 23.453 2.97442 22.4175C2.95993 22.1897 2.93922 21.9664 2.93218 21.7362C2.91602 21.3091 2.94957 21.0258 3.003 20.8266C3.07466 20.6278 3.15667 20.5122 3.25525 20.4211C3.3004 20.3792 3.34182 20.3246 3.38076 20.3005C3.44661 20.2604 3.50626 20.327 3.5833 20.4795C3.65744 20.6323 3.76845 20.8709 3.80821 21.1782C3.94821 22.0915 4.0617 23.0314 4.15282 23.9844C4.23442 24.9346 4.2949 25.9105 4.38643 26.854L4.43075 27.257C4.43614 27.2682 4.41791 27.2525 4.44401 27.2728C4.71448 27.4674 5.03176 27.6588 5.32584 27.8531L7.16655 28.9983L7.15453 29.0219Z" fill="#231F20"/>
<path fill-rule="evenodd" clip-rule="evenodd" d="M22.0859 32.3473L22.073 33.7908C22.0743 33.9664 22.1 34.1408 22.0983 34.3164C22.09 34.9369 22.0817 35.5602 22.0734 36.1799C22.0705 36.4557 22.0871 36.7324 22.1074 37.0058C22.1298 37.3591 22.1894 37.7062 22.0987 38.0806C22.0714 38.1962 21.9094 38.1643 21.7479 38.067C21.5884 37.97 21.4215 37.8189 21.4 37.6213C21.3358 36.9271 21.2637 36.2142 21.3208 35.4906C21.3544 35.057 21.2836 34.6121 21.2666 34.171L21.2289 32.7134L21.2115 31.8154C21.2016 31.3619 21.2169 30.905 21.197 30.454C21.18 30.1036 21.1204 29.7594 21.1162 29.4052C21.115 29.3269 21.1071 29.2503 21.1104 29.1712C21.1266 28.8763 21.1995 28.7769 21.3817 28.74C21.424 28.7309 21.4662 28.7176 21.5072 28.7152C21.6456 28.7077 21.7529 28.8357 21.7926 29.0295C21.8556 29.3253 21.9281 29.6322 21.9707 29.9457C22.008 30.2589 22.0324 30.5782 22.056 30.9005L22.0987 31.6204L22.1074 32.3456L22.0859 32.3473Z" fill="#231F20"/>
<path fill-rule="evenodd" clip-rule="evenodd" d="M48.0516 32.4123L41.8526 33.9647C41.0984 34.1515 40.352 34.3678 39.5965 34.5454L31.5962 36.4081C30.4149 36.6931 29.2278 36.9793 28.0556 37.2618C26.545 37.6122 25.0465 38.0305 23.4787 38.1784C22.9775 38.2041 23.0422 38.0554 23.4153 37.8325C23.7869 37.5956 24.4753 37.2672 25.3372 37.0567C28.3886 36.2884 31.4554 35.5375 34.5648 34.8499C36.4258 34.4402 38.3319 33.8923 40.2186 33.406L46.447 31.815C47.7231 31.4829 49.0005 31.1515 50.2675 30.799L51.0326 30.5816L51.2504 30.5174C51.2757 30.5016 51.3395 30.5066 51.3283 30.4631L51.3304 30.3571C51.3333 28.926 51.3362 27.4978 51.3391 26.0817C51.3329 24.5384 51.2782 23.0236 51.2902 21.4915C51.2927 21.1539 51.2906 20.8226 51.301 20.4821C51.3639 19.2184 51.4952 18.8121 51.7835 18.5735C51.8498 18.5192 51.9177 18.4459 51.9807 18.4181C52.1981 18.3291 52.2926 18.8435 52.3 19.7498C52.3389 22.45 52.3481 25.3138 52.3452 28.1929C52.3431 29.0324 52.3406 29.8737 52.3389 30.7178L52.2685 30.927L52.2333 31.0314L52.2155 31.0831L52.2068 31.1092C52.2826 31.1635 52.1033 31.0372 52.1215 31.0504L52.1207 31.0521L52.1186 31.0546L52.1153 31.06L52.1078 31.0707L51.9943 31.2418C51.9641 31.3072 51.8717 31.3333 51.8133 31.3805C51.6742 31.4514 51.4816 31.4961 51.3428 31.5413L51.0885 31.615L50.0778 31.895L48.0607 32.4355L48.0516 32.4123Z" fill="#231F20"/>
<path fill-rule="evenodd" clip-rule="evenodd" d="M39.802 20.6294L35.1323 21.6409L33.4361 22.041L27.4385 23.3735C26.5525 23.5739 25.6657 23.7926 24.793 24.0171C23.6664 24.2835 22.5439 24.5925 21.4024 24.7822C21.0491 24.8493 21.0797 24.7996 21.3514 24.6393C21.4869 24.5581 21.684 24.4475 21.9222 24.3249C22.1591 24.1957 22.4445 24.0652 22.7647 23.9695L24.4633 23.4418C25.0316 23.2741 25.6053 23.1258 26.1781 22.9746C27.3242 22.6689 28.4802 22.3951 29.6495 22.1541C31.0466 21.8612 32.4789 21.4657 33.898 21.1248L38.5875 20.0288C39.5506 19.8076 40.514 19.5864 41.4762 19.3652C42.9333 19.0285 44.4017 18.7067 45.8447 18.3542C46.9672 18.0837 48.0557 17.7669 49.1633 17.4819C49.4069 17.4185 49.6438 17.3481 49.8902 17.2889C50.3512 17.1903 50.6615 17.1559 50.888 17.175C51.113 17.1874 51.2505 17.2342 51.3698 17.3141C51.424 17.3506 51.4924 17.3821 51.5272 17.4193C51.6431 17.539 51.2973 17.7598 50.6524 18.0203C48.7069 18.6412 46.6181 19.1321 44.5135 19.6071C42.9491 19.9538 41.3776 20.3022 39.809 20.6501L39.802 20.6294Z" fill="#231F20"/>
<path fill-rule="evenodd" clip-rule="evenodd" d="M10.4697 19.6666C11.3084 20.0912 12.1517 20.5108 13.0013 20.9175L13.9398 21.3429C15.0346 21.8665 16.1297 22.3904 17.2236 22.9136C17.7095 23.1451 18.2044 23.3671 18.6932 23.5842C19.3195 23.8704 19.9631 24.1243 20.5347 24.5534C20.7137 24.6834 20.6296 24.7476 20.4175 24.7518C20.3111 24.7539 20.1735 24.7418 20.0207 24.7141C19.8612 24.6872 19.6769 24.6557 19.503 24.5712C18.2405 24.0066 16.9316 23.498 15.6741 22.8518C14.9186 22.4724 14.0976 22.1547 13.3086 21.7994C12.4417 21.4092 11.5781 21.0078 10.7186 20.5974L9.13552 19.8315C8.33777 19.4417 7.54789 19.0255 6.76091 18.6237C6.15245 18.3043 5.53115 18.0364 4.93014 17.6992C4.79719 17.6267 4.66216 17.5633 4.53376 17.4813C4.06405 17.1529 3.95636 16.9888 3.975 16.766C3.97956 16.7151 3.97624 16.6604 3.98908 16.6177C4.03009 16.4785 4.29932 16.4968 4.65636 16.672C5.72375 17.1843 6.81434 17.7932 7.94635 18.3656C8.78469 18.7931 9.62469 19.2326 10.4767 19.6493L10.4697 19.6666Z" fill="#231F20"/>
<path fill-rule="evenodd" clip-rule="evenodd" d="M46.2239 13.4144C46.2239 13.8414 46.2243 14.2693 46.2347 14.698C46.2384 14.8541 46.2682 15.0078 46.2695 15.1644C46.2715 15.7169 46.2778 16.2703 46.2699 16.8249C46.2703 17.0709 46.2918 17.3161 46.3167 17.5584C46.3519 17.8691 46.3697 18.1843 46.3043 18.5016C46.2827 18.6006 46.1543 18.5944 46.0098 18.521C45.8677 18.4469 45.6937 18.3081 45.6473 18.1342C45.5562 17.8252 45.5231 17.5129 45.4974 17.1973C45.4734 16.8816 45.4527 16.5648 45.4796 16.2409C45.5078 15.854 45.4278 15.4609 45.403 15.0695L45.34 13.7735L45.311 12.9741C45.2957 12.5702 45.2973 12.1631 45.263 11.7634C45.2402 11.4519 45.1598 11.1491 45.1234 10.8389C45.1197 10.7705 45.1072 10.7043 45.1105 10.6347C45.113 10.5705 45.1188 10.517 45.1292 10.4723C45.1441 10.4276 45.1756 10.3915 45.2004 10.3617C45.2543 10.3021 45.3164 10.2681 45.3976 10.2404C45.4344 10.2283 45.4692 10.2118 45.5024 10.2047C45.6063 10.1803 45.7281 10.2834 45.8561 10.4632C45.9066 10.5974 45.958 10.732 46.0044 10.8687C46.035 11.0058 46.057 11.1433 46.0794 11.2829C46.1208 11.5616 46.1473 11.8454 46.1705 12.1308C46.2028 12.5549 46.2293 12.9828 46.2467 13.4119L46.2239 13.4144Z" fill="#231F20"/>
<path fill-rule="evenodd" clip-rule="evenodd" d="M32.4133 12.4634C30.7578 12.7509 29.1018 13.0367 27.4529 13.3465L25.6565 13.7164C24.6028 13.9285 23.5407 14.1314 22.5148 14.399L22.1292 14.498L21.8023 14.6036L21.7228 14.628L21.6826 14.6396C21.6793 14.6517 21.6781 14.6657 21.676 14.6786L21.6681 14.7598L21.6578 14.9068L21.5741 16.5218C21.5306 17.479 21.5041 18.4428 21.488 19.3934C21.4681 20.6149 21.4772 21.8434 21.3766 23.0599C21.3231 23.8196 20.6757 22.8495 20.665 21.4354C20.6641 20.1854 20.6766 18.937 20.7097 17.6861C20.7238 17.0606 20.7544 16.4348 20.7892 15.8077L20.848 14.8637L20.8571 14.7287C20.8526 14.6537 20.8886 14.5995 20.9039 14.5353C20.947 14.4168 20.9748 14.2743 21.0353 14.1894L21.0452 14.1712L21.0477 14.1666L21.0489 14.1641C21.0601 14.1716 20.957 14.0929 21.0017 14.1252L21.0104 14.1182L21.046 14.0896L21.1168 14.0333C21.1628 13.9947 21.2071 13.955 21.2809 13.9388L21.6267 13.8228C22.3889 13.5967 23.1332 13.426 23.8912 13.2392C24.6471 13.0628 25.4059 12.8805 26.1618 12.7281C27.824 12.3847 29.4903 12.0749 31.1558 11.7643C32.1806 11.575 33.2065 11.3861 34.2308 11.1972C35.7812 10.9077 37.3423 10.6314 38.8728 10.3042C40.0628 10.0503 41.2163 9.74587 42.3786 9.45096C42.6329 9.38261 42.8822 9.3151 43.1386 9.24593C44.0963 9.01273 44.3957 8.96676 44.667 9.13037C44.7279 9.1664 44.8041 9.19747 44.846 9.23847C44.9885 9.37599 44.638 9.62451 43.9397 9.87344C41.8741 10.5676 39.6531 11.0672 37.4177 11.5207C35.7572 11.8587 34.0871 12.1739 32.42 12.4858L32.4133 12.4634Z" fill="#231F20"/>
<path fill-rule="evenodd" clip-rule="evenodd" d="M24.7029 6.22373L28.9597 5.52374C29.4783 5.43882 29.9923 5.32948 30.5117 5.25243C31.4287 5.11658 32.3478 4.98942 33.2756 4.88918C33.742 4.84486 34.2055 4.80137 34.6856 4.79102L35.0505 4.79143L35.2804 4.80717C35.3719 4.8138 35.4531 4.83492 35.5397 4.85232C35.7575 4.83244 35.765 5.06107 35.8333 5.21474C35.8594 5.29303 35.9008 5.38705 35.9141 5.45167L35.9555 5.62936C36.1436 6.47101 36.1804 7.31598 36.1771 8.1361C36.1767 9.19106 36.127 10.2315 36.1212 11.2596C36.1204 11.5793 35.999 11.5528 35.8499 11.2861C35.6995 11.0202 35.5289 10.5028 35.5045 9.89355C35.4684 8.81621 35.4601 7.75669 35.3649 6.74894C35.3384 6.49711 35.3003 6.25066 35.2518 6.00918C35.2278 5.88947 35.1934 5.77101 35.1669 5.65587C35.1619 5.62729 35.166 5.62107 35.1607 5.60119C35.154 5.59788 35.1474 5.59291 35.1395 5.59084C35.1346 5.59001 35.1321 5.58877 35.13 5.58669L35.1267 5.58421L35.0865 5.5809C34.9685 5.57882 34.8446 5.57758 34.7191 5.5809C34.4644 5.58877 34.2034 5.60616 33.9413 5.6248C32.6792 5.72172 31.3666 5.99344 30.0759 6.21918L25.808 6.98296L23.1799 7.46178C21.8532 7.70491 20.5166 7.93272 19.2007 8.18663C18.1768 8.38089 17.1835 8.63397 16.1654 8.82036C15.9418 8.86302 15.7235 8.91107 15.4957 8.94462C15.074 9.01006 14.7907 9.02828 14.589 9.00592C14.3852 8.9732 14.2634 8.90775 14.1603 8.80255C14.1135 8.7545 14.0539 8.70894 14.0249 8.6613C13.9292 8.50763 14.2506 8.29888 14.8487 8.15225C16.6236 7.71278 18.5164 7.34456 20.4251 6.98462C21.8429 6.71912 23.2686 6.45154 24.6963 6.20054L24.7029 6.22373Z" fill="#231F20"/>
<path fill-rule="evenodd" clip-rule="evenodd" d="M13.5547 14.3254L13.5125 15.7038C13.5092 15.872 13.5274 16.0389 13.5216 16.2067C13.4976 16.7994 13.4731 17.395 13.4491 17.9865C13.44 18.2495 13.445 18.515 13.4541 18.7772C13.4603 19.1156 13.5038 19.4536 13.3973 19.8048C13.3654 19.9138 13.2155 19.8732 13.0718 19.7705C12.9297 19.6669 12.7901 19.5149 12.7847 19.3273C12.7731 18.6679 12.757 17.9853 12.822 17.2981C12.8655 16.886 12.8179 16.4589 12.8162 16.0377L12.8237 14.646L12.8319 13.7886C12.8344 13.3553 12.8543 12.92 12.8452 12.4892C12.8423 12.1542 12.7856 11.8253 12.7889 11.4894C12.788 11.4156 12.781 11.3431 12.7843 11.2686C12.8042 10.9898 12.8609 10.9041 13.0328 10.8623C13.0718 10.8523 13.1111 10.8387 13.1492 10.8349C13.2789 10.8221 13.3791 10.9418 13.4147 11.136C13.4632 11.4256 13.5241 11.7221 13.5406 12.0241C13.558 12.3248 13.5696 12.6334 13.5734 12.9411C13.587 13.3997 13.5771 13.8619 13.5729 14.3246L13.5547 14.3254Z" fill="#231F20"/>
<path fill-rule="evenodd" clip-rule="evenodd" d="M10.1819 10.9713L10.1305 12.8244C10.1264 13.0497 10.1459 13.2746 10.1392 13.4999C10.1102 14.2952 10.0812 15.0925 10.0523 15.887C10.0415 16.2399 10.0477 16.5957 10.0593 16.9465C10.0684 17.4005 10.1206 17.847 10.0025 18.3217C9.9661 18.4695 9.79752 18.4186 9.63639 18.2856C9.47858 18.1556 9.31663 17.9505 9.31 17.695C9.29137 16.7974 9.27314 15.8787 9.34852 14.955C9.39823 14.4012 9.34645 13.8272 9.34604 13.261L9.35847 11.3929L9.36882 10.2423C9.37089 9.66156 9.39202 9.07795 9.38 8.50055C9.37172 8.05156 9.31 7.61126 9.3071 7.16268C9.30586 7.06369 9.29799 6.96677 9.30131 6.86695C9.31705 6.49541 9.38829 6.37363 9.58006 6.31399C9.62438 6.30032 9.6687 6.28085 9.71178 6.27505C9.85716 6.25559 9.96941 6.4134 10.0079 6.67103C10.0651 7.05913 10.138 7.45967 10.1579 7.86765C10.1819 8.27481 10.1935 8.68984 10.2018 9.10653C10.2175 9.72451 10.2076 10.3475 10.2026 10.97L10.1819 10.9713Z" fill="#231F20"/>
<path fill-rule="evenodd" clip-rule="evenodd" d="M21.4779 3.60272L18.6643 4.07242L17.6433 4.27413C16.4375 4.48248 15.2305 4.69123 14.0256 4.89958C13.4913 4.99567 12.9578 5.11248 12.4322 5.23011C11.7566 5.38212 11.084 5.56023 10.3927 5.63602C9.96275 5.68614 10.3832 5.03212 11.1573 4.83952C12.532 4.51106 13.9126 4.212 15.3233 3.99248C16.1679 3.86656 17.029 3.64911 17.8852 3.48094L20.715 2.95118L22.4596 2.63887C23.3393 2.47858 24.2274 2.33733 25.0985 2.16503C25.7765 2.03414 26.4326 1.85686 27.1003 1.70609C27.2473 1.67254 27.3894 1.63195 27.5389 1.60379C28.0919 1.49941 28.2779 1.52799 28.4323 1.73674C28.4676 1.78396 28.511 1.82994 28.5351 1.87964C28.6154 2.04739 28.4125 2.22881 28.0161 2.34313C26.841 2.68692 25.5818 2.90893 24.3156 3.13467C23.3737 3.29662 22.4273 3.4594 21.4829 3.62177L21.4779 3.60272Z" fill="#231F20"/>
<path fill-rule="evenodd" clip-rule="evenodd" d="M23.7916 0.566651C24.1503 0.511148 24.5094 0.455231 24.8669 0.400143C24.9969 0.380261 25.1228 0.343397 25.2533 0.326829C25.7118 0.273812 26.1741 0.220794 26.6318 0.167776C26.8351 0.143753 27.0364 0.102747 27.2382 0.0733388C27.497 0.0319188 27.7522 -0.0260693 28.0338 0.0128655C28.1262 0.0277767 28.1059 0.128427 28.0454 0.234877C27.9845 0.340912 27.8822 0.464758 27.741 0.501208C27.2406 0.635823 26.7237 0.728189 26.1906 0.762154C25.8713 0.784106 25.5544 0.8831 25.2367 0.947715C24.888 1.01896 24.5384 1.09061 24.1892 1.16186C23.9755 1.20866 23.7626 1.25712 23.5555 1.31594L23.2631 1.40251C23.2291 1.4141 23.1935 1.4257 23.1633 1.44683C23.1285 1.46837 23.1467 1.51268 23.1396 1.54665L23.138 1.61334L23.1392 1.72765C23.1442 1.98694 23.1951 2.24168 23.2378 2.48895C23.2477 2.5428 23.266 2.59582 23.266 2.64801C23.2664 2.74659 23.2627 2.80292 23.2167 2.84765C23.1558 2.88907 23.0866 2.92221 23.0021 2.95617C22.9632 2.97274 22.9288 2.99469 22.8953 3.01043C22.8381 3.03694 22.7814 3.03818 22.7035 2.99718C22.6298 2.95949 22.5258 2.89321 22.5067 2.8054C22.4073 2.57428 22.3949 2.35227 22.3854 2.12984C22.3825 2.01884 22.3846 1.90825 22.3887 1.7989L22.3974 1.6357L22.4036 1.51393C22.4061 1.45884 22.4098 1.40416 22.4169 1.35115C22.4206 1.27162 22.4434 1.20452 22.4674 1.13825C22.5544 1.096 22.5241 0.982922 22.6095 0.944816C22.6675 0.888485 22.7482 0.847893 22.8253 0.808958C22.9093 0.778308 22.9918 0.741858 23.0779 0.718248L23.2366 0.673929C23.4242 0.625882 23.606 0.587775 23.787 0.550497L23.7916 0.566651Z" fill="#231F20"/>
<path fill-rule="evenodd" clip-rule="evenodd" d="M20.3881 5.91555C20.0352 5.94248 19.6727 5.98638 19.3128 6.03857C19.1811 6.05804 19.0535 6.09614 18.9218 6.11478C18.4566 6.18106 17.989 6.2465 17.5255 6.3281C17.3197 6.36413 17.1171 6.41922 16.9146 6.46478C16.6553 6.52774 16.4001 6.60644 16.1218 6.60768C16.0327 6.60727 16.0286 6.5062 16.075 6.39023C16.1218 6.27549 16.2191 6.13632 16.3633 6.08538C16.8727 5.89691 17.4025 5.77017 17.9526 5.7097C18.2814 5.67242 18.6066 5.56265 18.9363 5.49307C19.2991 5.41768 19.664 5.35058 20.0343 5.29218L20.3785 5.24289C20.4688 5.23295 20.685 5.19899 20.8342 5.20354C20.9427 5.20354 21.0421 5.21845 21.1171 5.27561C21.2082 5.32366 21.2098 5.43301 21.2446 5.53035C21.2985 5.841 21.3262 5.98555 21.3697 6.18188C21.4289 6.442 21.5321 6.68969 21.6149 6.94898C21.6331 7.00614 21.6597 7.06165 21.6659 7.12212C21.6795 7.23437 21.6787 7.31348 21.634 7.37354C21.5718 7.4365 21.5023 7.47253 21.4103 7.49987C21.3689 7.51147 21.33 7.52348 21.2943 7.52638C21.233 7.53135 21.1775 7.50774 21.11 7.4833C21.0437 7.45555 20.9447 7.41164 20.9228 7.34247C20.7045 6.92952 20.6556 6.43869 20.5852 5.95325C20.5765 5.91638 20.5877 5.94082 20.5811 5.93502C20.5885 5.93046 20.5885 5.92591 20.5869 5.92135C20.586 5.91887 20.5836 5.91721 20.5807 5.91473L20.3914 5.93212L20.3881 5.91555Z" fill="#231F20"/>
<path fill-rule="evenodd" clip-rule="evenodd" d="M40.0114 30.4688C39.2024 30.6499 38.3923 30.811 37.5821 30.9675C37.2863 31.0243 36.9964 31.1063 36.6994 31.1568C36.1763 31.2463 35.6511 31.3275 35.1234 31.4C34.8595 31.4356 34.5953 31.4716 34.3281 31.4994L33.9243 31.5333L33.718 31.5458C33.6592 31.5445 33.5271 31.5578 33.4384 31.5512C33.3506 31.5495 33.2674 31.5383 33.1887 31.513C33.1692 31.5072 33.1477 31.501 33.1298 31.4919L33.0897 31.4439L33.0093 31.3478C32.9111 31.2173 32.8291 31.0371 32.7861 30.8872C32.7069 30.6258 32.6809 30.3678 32.6713 30.1209C32.6622 29.8041 32.668 29.4967 32.697 29.2002C32.7285 28.904 32.7753 28.6182 32.8014 28.3386C32.818 28.1671 32.9455 28.1626 33.1021 28.3133C33.2566 28.462 33.4326 28.7851 33.4521 29.1376C33.4761 29.4491 33.4463 29.744 33.4653 30.0161C33.4732 30.1507 33.4819 30.2833 33.5043 30.4001C33.5122 30.4618 33.5275 30.5157 33.5407 30.5699C33.5461 30.5981 33.5552 30.6225 33.5648 30.6461C33.5764 30.6722 33.5619 30.6573 33.5664 30.6639C33.5656 30.6697 33.561 30.6884 33.5701 30.6967C33.5743 30.7008 33.5797 30.7045 33.5867 30.7083C33.578 30.712 33.6178 30.7087 33.6542 30.7058L33.7598 30.6962C34.0465 30.6677 34.3464 30.6333 34.6491 30.613C35.374 30.5542 36.1104 30.3566 36.8411 30.2096C37.6455 30.0464 38.4502 29.8794 39.2501 29.6939C39.7426 29.5796 40.2342 29.4628 40.7192 29.3277C41.4495 29.1194 42.2012 28.916 42.8561 28.5987C42.9182 28.5677 42.9791 28.5349 43.0346 28.5002C43.0818 28.4716 43.1054 28.4521 43.1373 28.4248C43.1659 28.3983 43.1937 28.3713 43.209 28.3365C43.2256 28.3009 43.2119 28.2587 43.2098 28.2222L43.202 28.168L43.1941 28.0661L43.1738 27.8544L43.1208 27.4369C43.1025 27.316 43.074 27.1992 43.0541 27.0828C42.9915 26.6462 43.0508 26.5538 43.2471 26.3658C43.2893 26.3202 43.3324 26.2742 43.3734 26.2299C43.5051 26.0725 43.8117 26.244 43.9749 26.6379C44.0983 26.9229 44.136 27.2116 44.1782 27.497C44.1964 27.6403 44.2085 27.7836 44.2172 27.9281L44.2259 28.1448L44.2271 28.204C44.2234 28.2363 44.2246 28.2694 44.2234 28.3026C44.2196 28.3676 44.225 28.4364 44.2138 28.4993C44.194 28.7561 44.0527 28.9935 43.8377 29.1517C43.7383 29.2316 43.6079 29.3153 43.5097 29.3675C43.4347 29.4097 43.3635 29.4449 43.2914 29.4802C43.0077 29.6144 42.7339 29.7171 42.4593 29.8123C41.6462 30.0919 40.8298 30.2841 40.0188 30.4912L40.0114 30.4688Z" fill="#231F20"/>
<path fill-rule="evenodd" clip-rule="evenodd" d="M3.57425 25.8552C3.57425 25.8552 1.46018 25.2339 0.170356 26.2429C-0.974494 27.1389 3.68153 31.7924 13.216 33.4264L3.7768 27.698L3.57425 25.8552Z" fill="#231F20"/>
<path fill-rule="evenodd" clip-rule="evenodd" d="M38.6626 20.2026L34.4916 21.1503L32.9769 21.5235L27.6217 22.7773C26.8301 22.9641 26.0386 23.1708 25.2591 23.3787C24.2534 23.6297 23.2514 23.9151 22.2308 24.0994C21.9152 24.1632 21.9438 24.1193 22.1865 23.9772C22.3083 23.9043 22.4835 23.807 22.6964 23.6968C22.9081 23.5804 23.1628 23.4644 23.4486 23.3758C24.4568 23.0407 25.4695 22.7276 26.4959 22.4571C27.5194 22.1742 28.5511 21.9157 29.5953 21.6887C30.8433 21.4112 32.1219 21.0459 33.3902 20.729L37.5786 19.7068L40.1591 19.0896C41.4609 18.7753 42.7731 18.4762 44.0625 18.1511C45.0649 17.8984 46.0391 17.6134 47.0265 17.3471C47.244 17.2879 47.4556 17.2241 47.6764 17.1706C48.0869 17.077 48.3632 17.041 48.5653 17.053C48.7666 17.0588 48.8892 17.0961 48.9965 17.1624C49.0453 17.1926 49.1066 17.2183 49.1381 17.2493C49.2425 17.3496 48.9352 17.5463 48.359 17.7837C46.619 18.3515 44.7522 18.8067 42.8721 19.2483C41.4742 19.5718 40.07 19.8961 38.6688 20.22L38.6626 20.2026Z" fill="#231F20"/>
<path fill-rule="evenodd" clip-rule="evenodd" d="M29.3667 8.16971C29.5904 8.14195 29.8149 8.1142 30.0373 8.08687C30.1185 8.07568 30.1976 8.0529 30.2792 8.04337C30.5662 8.01107 30.8582 7.97835 31.1428 7.94604C31.2704 7.93237 31.3967 7.9071 31.521 7.88059C31.6804 7.8458 31.8378 7.79734 32.0056 7.80562C32.11 7.80852 32.0424 8.13533 31.8618 8.19124C31.5396 8.2774 31.2161 8.35817 30.8752 8.36479C30.6719 8.37225 30.471 8.43272 30.268 8.46669C30.046 8.50148 29.8215 8.5371 29.5982 8.57231C29.4603 8.59426 29.3216 8.61663 29.1849 8.63817C28.9529 8.67627 28.7587 8.67006 28.5487 8.71065C28.3892 8.73757 28.2364 8.79101 28.0806 8.83408C28.0462 8.84361 28.0131 8.85728 27.9783 8.86432C27.8491 8.89124 27.8031 8.86763 27.7571 8.75207C27.7468 8.72598 27.7343 8.7003 27.7265 8.67337C27.7 8.58349 27.7418 8.499 27.8342 8.45799C28.1071 8.33497 28.4058 8.27947 28.7127 8.23929C28.8224 8.22272 28.9591 8.21775 29.0358 8.20905L29.3642 8.15894L29.3667 8.16971Z" fill="#231F20"/>
<path fill-rule="evenodd" clip-rule="evenodd" d="M27.9572 10.6202C28.3573 10.5585 28.7578 10.4968 29.1567 10.4355C29.3029 10.4073 29.4454 10.38 29.5916 10.3522C30.1048 10.2685 30.6213 10.1844 31.1328 10.1012C31.361 10.0635 31.5876 10.0134 31.8109 9.96202C32.0975 9.89534 32.3825 9.81457 32.6782 9.78972C32.8621 9.77191 32.7026 10.1231 32.3754 10.2168C31.7926 10.3696 31.2078 10.5146 30.6014 10.5817C30.2394 10.626 29.8737 10.7225 29.5083 10.7904L28.3009 11.0017L27.5574 11.128C27.1826 11.1934 26.804 11.2506 26.4337 11.3243C26.1459 11.3823 25.8683 11.4639 25.5859 11.5347C25.5241 11.5505 25.4616 11.5666 25.4003 11.5824C25.1663 11.6313 25.0859 11.6147 25.0147 11.5049C24.9985 11.4797 24.9791 11.4556 24.9675 11.4295C24.9289 11.3417 25.0118 11.2489 25.1787 11.1914C25.6749 11.0228 26.2092 10.9134 26.7481 10.8132C27.149 10.7457 27.5521 10.6773 27.9547 10.6094L27.9572 10.6202Z" fill="#231F20"/>
</svg>
