<svg width="15" height="12" viewBox="0 0 15 12" fill="none" xmlns="http://www.w3.org/2000/svg">
<path d="M8.04053 0.371868C7.79967 -0.043226 7.20022 -0.0432277 6.95936 0.371868L5.26308 3.29519C5.14409 3.50024 4.93844 3.64017 4.70402 3.67558L1.52508 4.15572C0.991153 4.23636 0.803865 4.91049 1.21968 5.25499L3.58786 7.217C3.80708 7.39862 3.91015 7.6851 3.8569 7.96475L3.23742 11.218C3.13949 11.7322 3.67936 12.1318 4.14258 11.8879L7.13596 10.3118C7.36379 10.1918 7.6361 10.1918 7.86393 10.3118L10.8573 11.8879C11.3205 12.1318 11.8604 11.7322 11.7625 11.218L11.143 7.96475C11.0897 7.6851 11.1928 7.39862 11.412 7.217L13.7802 5.25499C14.196 4.91049 14.0087 4.23636 13.4748 4.15572L10.2959 3.67558C10.0615 3.64017 9.8558 3.50024 9.73681 3.29519L8.04053 0.371868Z" fill="black"/>
</svg>
