<svg xmlns="http://www.w3.org/2000/svg" width="80" height="80" viewBox="0 0 80 80" fill="none">
  <path d="M48.86 20.868C48.86 18.5049 47.9213 16.2386 46.2503 14.5677C44.5794 12.8967 42.3131 11.958 39.95 11.958C37.5869 11.958 35.3206 12.8967 33.6497 14.5677C31.9787 16.2386 31.04 18.5049 31.04 20.868C31.04 23.2311 31.9787 25.4974 33.6497 27.1683C35.3206 28.8393 37.5869 29.778 39.95 29.778C42.3131 29.778 44.5794 28.8393 46.2503 27.1683C47.9213 25.4974 48.86 23.2311 48.86 20.868ZM10.06 48H22.02V36.056L22.052 35.336C22.156 34.148 22.524 33.036 23.092 32.056H12.064L11.596 32.084C10.623 32.1986 9.7259 32.6664 9.07486 33.3985C8.42382 34.1307 8.06413 35.0763 8.064 36.056V46C8.064 46.5304 8.27471 47.0392 8.64979 47.4142C9.02486 47.7893 9.52957 48 10.06 48ZM71.96 46C71.96 46.5304 71.7493 47.0392 71.3742 47.4142C70.9991 47.7893 70.4904 48 69.96 48H57.896V36.056L57.872 35.46C57.7847 34.2607 57.4263 33.0968 56.824 32.056H67.96C68.9403 32.0563 69.8865 32.4165 70.6187 33.0684C71.3509 33.7202 71.8183 34.6183 71.932 35.592L71.96 36.056V46ZM53.868 35.592C53.7542 34.6176 53.2863 33.719 52.5532 33.067C51.8201 32.4151 50.873 32.0553 49.892 32.056H30.02L29.552 32.084C28.579 32.1986 27.6819 32.6664 27.0309 33.3985C26.3798 34.1307 26.0201 35.0763 26.02 36.056V48H53.892V36.056L53.868 35.592ZM59.9 14.472C61.9294 14.472 63.8758 15.2782 65.3108 16.7132C66.7458 18.1483 67.552 20.0946 67.552 22.124C67.552 24.1534 66.7458 26.0998 65.3108 27.5348C63.8758 28.9698 61.9294 29.776 59.9 29.776C57.87 29.776 55.9232 28.9696 54.4878 27.5342C53.0524 26.0988 52.246 24.152 52.246 22.122C52.246 20.092 53.0524 18.1452 54.4878 16.7098C55.9232 15.2744 57.87 14.472 59.9 14.472ZM27.716 22.12C27.716 20.0906 26.9098 18.1443 25.4748 16.7092C24.0398 15.2742 22.0934 14.468 20.064 14.468C18.0346 14.468 16.0882 15.2742 14.6532 16.7092C13.2182 18.1443 12.412 20.0906 12.412 22.12C12.412 24.1494 13.2182 26.0958 14.6532 27.5308C16.0882 28.9658 18.0346 29.772 20.064 29.772C22.0934 29.772 24.0398 28.9658 25.4748 27.5308C26.9098 26.0958 27.716 24.1494 27.716 22.12ZM10 52C9.46957 52 8.96086 52.2107 8.58579 52.5858C8.21071 52.9609 8 53.4696 8 54V58C8 60.6522 9.05357 63.1957 10.9289 65.0711C12.8043 66.9464 15.3478 68 18 68H62C64.6522 68 67.1957 66.9464 69.0711 65.0711C70.9464 63.1957 72 60.6522 72 58V54C72 53.4696 71.7893 52.9609 71.4142 52.5858C71.0391 52.2107 70.5304 52 70 52H10Z" fill="white"/>
</svg>