<svg xmlns="http://www.w3.org/2000/svg" width="80" height="80" viewBox="0 0 80 80" fill="none">
  <path d="M69.1635 40L72.8435 33.64C73.2857 32.8748 73.406 31.9653 73.1779 31.1115C72.9497 30.2576 72.3918 29.5293 71.6268 29.0867L65.2601 25.4067V18.0734C65.2601 17.1893 64.9089 16.3415 64.2838 15.7163C63.6587 15.0912 62.8108 14.74 61.9268 14.74H54.5968L50.9201 8.3767C50.4761 7.61308 49.7492 7.05505 48.8968 6.82336C48.474 6.70875 48.0327 6.67919 47.5984 6.73641C47.1641 6.79363 46.7455 6.93649 46.3668 7.1567L40.0001 10.8367L33.6334 7.15336C32.8679 6.71135 31.958 6.59157 31.1041 6.82037C30.2502 7.04916 29.5222 7.60779 29.0801 8.37336L25.4001 14.74H18.0701C17.1861 14.74 16.3382 15.0912 15.7131 15.7163C15.088 16.3415 14.7368 17.1893 14.7368 18.0734V25.4034L8.37012 29.0834C7.99022 29.3019 7.65725 29.5933 7.39033 29.9409C7.12341 30.2885 6.9278 30.6854 6.81475 31.1088C6.70169 31.5323 6.67341 31.9738 6.73154 32.4082C6.78966 32.8426 6.93305 33.2612 7.15345 33.64L10.8334 40L7.15345 46.36C6.71341 47.1259 6.59402 48.0348 6.82131 48.8883C7.0486 49.7419 7.60413 50.471 8.36678 50.9167L14.7335 54.5967V61.9267C14.7335 62.8107 15.0846 63.6586 15.7098 64.2837C16.3349 64.9088 17.1827 65.26 18.0668 65.26H25.4001L29.0801 71.6267C29.3752 72.1312 29.7966 72.5501 30.3027 72.8423C30.8089 73.1346 31.3823 73.29 31.9668 73.2934C32.5468 73.2934 33.1234 73.14 33.6368 72.8434L39.9968 69.1634L46.3634 72.8434C47.1288 73.2848 48.0381 73.4045 48.8917 73.1765C49.7453 72.9484 50.4736 72.391 50.9168 71.6267L54.5934 65.26H61.9235C62.8075 65.26 63.6554 64.9088 64.2805 64.2837C64.9056 63.6586 65.2568 62.8107 65.2568 61.9267V54.5967L71.6235 50.9167C72.0027 50.6975 72.335 50.4058 72.6014 50.0581C72.8679 49.7105 73.0631 49.3137 73.1761 48.8905C73.2891 48.4673 73.3176 48.026 73.26 47.5918C73.2023 47.1576 73.0596 46.7391 72.8401 46.36L69.1635 40ZM31.6634 23.3C32.99 23.3005 34.262 23.8279 35.1997 24.7662C36.1374 25.7045 36.6639 26.9768 36.6634 28.3034C36.663 29.6299 36.1356 30.9019 35.1973 31.8396C34.259 32.7773 32.9866 33.3038 31.6601 33.3034C30.3336 33.3029 29.0616 32.7755 28.1239 31.8372C27.1862 30.8989 26.6597 29.6266 26.6601 28.3C26.6606 26.9735 27.1879 25.7015 28.1262 24.7638C29.0646 23.8261 30.3369 23.2996 31.6634 23.3ZM32.6634 55.3L27.3301 51.3034L47.3301 24.6367L52.6634 28.6334L32.6634 55.3ZM48.3301 56.6334C47.6733 56.6331 47.0229 56.5036 46.4162 56.252C45.8094 56.0004 45.2582 55.6318 44.7939 55.1672C44.3296 54.7026 43.9614 54.1511 43.7102 53.5442C43.4591 52.9373 43.3299 52.2869 43.3301 51.63C43.3303 50.9732 43.4599 50.3228 43.7115 49.7161C43.963 49.1094 44.3316 48.5581 44.7962 48.0938C45.2609 47.6295 45.8124 47.2613 46.4193 47.0101C47.0262 46.759 47.6766 46.6298 48.3335 46.63C49.66 46.6305 50.932 47.1579 51.8697 48.0962C52.8074 49.0345 53.3339 50.3068 53.3335 51.6334C53.333 52.9599 52.8056 54.2319 51.8673 55.1696C50.929 56.1073 49.6566 56.6338 48.3301 56.6334Z" fill="white"/>
</svg>